<?xml version="1.0" encoding="utf-8"?>
<!-- Generator: Adobe Illustrator 18.0.0, SVG Export Plug-In . SVG Version: 6.00 Build 0)  -->
<!DOCTYPE svg PUBLIC "-//W3C//DTD SVG 1.1//EN" "http://www.w3.org/Graphics/SVG/1.1/DTD/svg11.dtd">
<svg version="1.1" id="图层_1" xmlns="http://www.w3.org/2000/svg" xmlns:xlink="http://www.w3.org/1999/xlink" x="0px" y="0px"
	 viewBox="0 0 50 50" enable-background="new 0 0 50 50" xml:space="preserve">
<linearGradient id="SVGID_1_" gradientUnits="userSpaceOnUse" x1="2.4448" y1="16.6216" x2="49.3035" y2="34.0647">
	<stop  offset="0" style="stop-color:#EE5A49"/>
	<stop  offset="1" style="stop-color:#FFA4A9"/>
</linearGradient>
<path fill="url(#SVGID_1_)" d="M41.8,0H8.3C3.7,0,0,3.7,0,8.3v33.5C0,46.3,3.7,50,8.3,50h33.5c4.6,0,8.3-3.7,8.3-8.2V8.3
	C50,3.7,46.3,0,41.8,0L41.8,0z"/>
<g opacity="0.3">
	<path fill="#FFFFFF" stroke="#FEFEFE" stroke-miterlimit="10" d="M31,35.4c2.9,0,5.3,2.4,5.3,5.3S33.9,46,31,46s-5.3-2.4-5.3-5.3
		S28.1,35.4,31,35.4 M31,32.4c-4.6,0-8.3,3.7-8.3,8.3S26.5,49,31,49c4.6,0,8.3-3.7,8.3-8.3S35.6,32.4,31,32.4L31,32.4z"/>
</g>
<g opacity="0.3">
	<path fill="#FFFFFF" stroke="#FEFEFE" stroke-miterlimit="10" d="M40.9,35.4c2.9,0,5.3,2.4,5.3,5.3S43.8,46,40.9,46
		s-5.3-2.4-5.3-5.3S38,35.4,40.9,35.4 M40.9,32.4c-4.6,0-8.3,3.7-8.3,8.3s3.7,8.3,8.3,8.3s8.3-3.7,8.3-8.3S45.4,32.4,40.9,32.4
		L40.9,32.4z"/>
</g>
<path fill="#FFFFFF" d="M37.9,30.1l-0.1-0.1c-0.7-0.9-1.5-0.9-2.2,0l-0.1,0.1l0,0.2c0.1,3.3-0.3,4.5-0.7,4.9
	c-0.1,0.1-0.3,0.2-0.5,0.2c0,0-0.1,0-0.2,0l-5.2,0c-0.1,0-0.2,0-0.3,0c-0.2,0-0.6,0-0.6-0.9V23.9l5.6-0.2c0.4,0.6,1,1.4,1.7,2.4
	l0.1,0.1l0.2,0.1c0.9,0.3,1.4,0,1.6-0.2c0.2-0.3,0.3-0.7,0.2-1.3l-0.1-0.2c-2.2-3.3-4.7-6.5-7.3-9.3L29.9,15h7.1l0.1,0.1
	c0.5-0.3,0.8-0.6,0.8-1.1s-0.3-0.7-0.8-1l-0.1,0H25.5c-0.4-1-1-2.3-1.5-3.3l-0.1-0.1l-0.1-0.1c-0.3-0.2-0.6-0.3-0.9-0.3
	c-0.4,0-1,0.2-1.2,1.4l0,0.2l0.1,0.2c0.5,0.7,0.8,1.1,1.1,2.1H10.8l-0.1,0c-0.5,0.3-0.8,0.7-0.8,1.1s0.3,0.7,0.8,1l0.1-0.1h9.7
	c-2.5,4-5,6.1-7.3,6.9c-0.5,0.3-0.8,0.8-0.8,1.2s0.3,0.8,0.8,1.2l0.1,0.1l5.3-0.2c0.3,6.1-2.3,9.8-7.9,11.4l-0.2,0l-0.1,0.1
	c-0.3,0.4-0.4,0.8-0.3,1.2c0.1,0.4,0.5,0.7,1,0.9l0.2,0.1l0.2,0c6.6-1.9,10-6.5,9.7-13.8L26,24v11c0,0.9,0,1.6,0.5,2.1
	c0.5,0.5,1,0.9,1.9,0.9c0.1,0,0.2,0.1,0.3,0.1h5.6c0.9,0,1.6-0.3,2.2-0.9c1.1-1.1,1.5-3.4,1.4-6.8L37.9,30.1z M28,16.6v0.2l0.1,0.1
	c0.8,0.8,2.1,2.3,3.8,4.3l-14.1,0.5c1.9-1.7,3.8-3.8,5.6-6.8h5.4C28.3,15,28,16,28,16.6z"/>
</svg>
