<?xml version="1.0" encoding="utf-8"?>
<!-- Generator: Adobe Illustrator 18.0.0, SVG Export Plug-In . SVG Version: 6.00 Build 0)  -->
<!DOCTYPE svg PUBLIC "-//W3C//DTD SVG 1.1//EN" "http://www.w3.org/Graphics/SVG/1.1/DTD/svg11.dtd">
<svg version="1.1" id="图层_1" xmlns="http://www.w3.org/2000/svg" xmlns:xlink="http://www.w3.org/1999/xlink" x="0px" y="0px"
	 viewBox="0 0 50 50" enable-background="new 0 0 50 50" xml:space="preserve">
<g>
	<g>
		<path fill="#FFC943" d="M41.7,3C44.6,3,47,5.4,47,8.3v33.6c0,2.9-2.4,5.3-5.3,5.3H8.3c-2.9,0-5.3-2.4-5.3-5.3V8.3
			C3,5.4,5.4,3,8.3,3H41.7 M41.7,0H8.3C3.7,0,0,3.7,0,8.2v33.6C0,46.4,3.7,50,8.3,50h33.4c4.6,0,8.3-3.7,8.3-8.2V8.3
			C49.9,3.7,46.2,0,41.7,0L41.7,0z"/>
	</g>
</g>
<g>
	<path fill="#FFC943" d="M16.4,17.9l0.1,0.1h0.2c0.1,0,0.1,0.1,0.2,0.1c0.3,0,1-0.1,1-1.5v-0.1l0.1-0.1c-1.1-1.7-2.3-3.6-3.7-5.4
		v-0.1l-0.1-0.1c-0.2-0.1-0.4-0.2-0.6-0.2c-0.5,0-1,0.3-1.2,1.5v0.2l0.1,0.2C13.5,13.9,14.8,15.7,16.4,17.9z"/>
	<path fill="#FFC943" d="M38.3,36.4l-0.1,0.1H26.1c-1.4,0-2.7-0.2-3.8-0.6l0.1-0.1c3.2-1.2,6-3,8.5-5.2c1.7,2,3.1,3.6,4.1,4.7
		l0.1,0.1c0.3,0.2,0.6,0.3,0.9,0.3c0.3,0,1-0.1,1-1.4v-0.2V34c-0.9-1.4-2.4-3.2-4.4-5.4c2.1-2.8,3.6-5.7,4.5-8.8
		c0.2-0.8,0-1.7-0.4-2.2c-0.5-0.7-1.5-1.2-2.9-1.2h-11v-1.4c0-0.7,0.3-1.4,1.7-1.4c4.5,0.2,8.6,0,12.1-0.5h0.2l0.1-0.1
		c0.4-0.4,0.6-0.9,0.6-1.3c-0.1-0.4-0.4-0.7-0.9-0.9h-0.1h-0.1c-3.2,0.5-7.3,0.6-12.3,0.5c-2.1,0-3.2,1.2-3.2,3.3V19
		c0,5.3-0.9,9.9-2.9,13.4c-0.1-0.2-0.3-0.4-0.4-0.7v-8.5c0.1-1-0.1-1.6-0.6-2.1c-0.5-0.6-1.4-0.7-2.5-0.7h-3.3h-0.1
		c-0.5,0.5-0.7,0.9-0.6,1.3c0,0.3,0.2,0.5,0.7,0.8l0.1-0.1h2.9c0.4,0,0.7,0.2,0.8,0.3c0.1,0.1,0.1,0.4,0.1,0.7v8
		c0.1,0.8-0.5,2.4-3.8,5.2l-0.1,0.1v0.1c-0.2,0.5-0.2,0.8,0,1.1c0.2,0.5,0.6,0.5,1.3,0.5h0.2l0.1,0.1c1.3-1,2.5-2.2,3.7-3.7
		c2.1,2.4,5.2,3.7,9.1,3.7c0.2,0,0.5,0,0.7,0h11.9h0.1c0.5-0.3,0.8-0.6,0.8-1S38.8,36.8,38.3,36.4z M21,35.3L21,35.3
		c-0.5-0.2-1-0.4-1.5-0.8c2.5-4,3.7-9,3.6-15h10.5c0.7,0,0.8,0.1,0.8,0.1s0,0.1-0.1,0.3c-0.7,2.4-1.9,4.7-3.5,6.9
		c-1.4-1.6-3.2-3.6-5.5-6.1l-0.2-0.1c-0.3-0.1-0.5-0.2-0.7-0.2c-0.3,0-1,0.2-1.2,1.2v0.2l0.2,0.2c2.1,2.5,4,4.7,5.8,6.7
		c-1.8,1.8-4.4,3.5-7.7,4.9l-0.1,0.1l-0.1,0.1C21.1,34.1,20.7,34.8,21,35.3z"/>
</g>
</svg>
