<?xml version="1.0" encoding="utf-8"?>
<!-- Generator: Adobe Illustrator 18.0.0, SVG Export Plug-In . SVG Version: 6.00 Build 0)  -->
<!DOCTYPE svg PUBLIC "-//W3C//DTD SVG 1.1//EN" "http://www.w3.org/Graphics/SVG/1.1/DTD/svg11.dtd">
<svg version="1.1" id="图层_1" xmlns="http://www.w3.org/2000/svg" xmlns:xlink="http://www.w3.org/1999/xlink" x="0px" y="0px"
	 viewBox="0 0 50 50" enable-background="new 0 0 50 50" xml:space="preserve">
<linearGradient id="SVGID_1_" gradientUnits="userSpaceOnUse" x1="0" y1="25" x2="50" y2="25">
	<stop  offset="0" style="stop-color:#EE5A49"/>
	<stop  offset="1" style="stop-color:#FFA4A9"/>
</linearGradient>
<path fill="url(#SVGID_1_)" d="M41.5,0H8C3.4,0,0,3.3,0,7.9v9.7v0.2c3,0.7,5.6,3.6,5.6,7S3,31.1,0,31.8v9.6C0,45.9,3.4,50,8,50h33.5
	c4.6,0,8.5-4.1,8.5-8.6V7.9C50,3.3,46,0,41.5,0z M43.6,38.4c-1,0-1.8-0.8-1.8-1.8s0.8-1.8,1.8-1.8c1,0,1.8,0.8,1.8,1.8
	S44.6,38.4,43.6,38.4z M43.6,32.2c-1,0-1.8-0.8-1.8-1.8c0-1,0.8-1.8,1.8-1.8c1,0,1.8,0.8,1.8,1.8C45.5,31.4,44.6,32.2,43.6,32.2z
	 M43.6,26.2c-1,0-1.8-0.8-1.8-1.8c0-1,0.8-1.8,1.8-1.8c1,0,1.8,0.8,1.8,1.8C45.5,25.4,44.6,26.2,43.6,26.2z M43.6,20.2
	c-1,0-1.8-0.8-1.8-1.8c0-1,0.8-1.8,1.8-1.8c1,0,1.8,0.8,1.8,1.8C45.5,19.4,44.6,20.2,43.6,20.2z M43.6,14.5c-1,0-1.8-0.8-1.8-1.8
	c0-1,0.8-1.8,1.8-1.8c1,0,1.8,0.8,1.8,1.8C45.5,13.7,44.6,14.5,43.6,14.5z"/>
<path fill="#FFFFFF" d="M39.3,29l-0.1-0.2L39.1,29c-2.7-1.5-5-3-7-5h6l0.1-0.3c0.4-0.3,0.7-0.8,0.7-1.2s-0.2-0.4-0.7-0.7L38,22H23.5
	c0.4-1,0.8-2,1.2-3H35l0.1-0.4c0.4-0.3,0.7-0.8,0.7-1.2s-0.2-0.4-0.7-0.7L35,17h-5.8l0-0.5c1.3-1,3-2.5,4.2-4.1L34,12v-0.2
	c0-1.1-1-1.7-2.2-1.4l-0.4,0l-0.2,0.1C30.2,12,29,13.1,27.8,14l-0.1,0.1l-0.1,0.1c-0.1,0.2-0.5,1.4-0.1,1.9c0.1,0.2,0.3-0.1,0.5,0.9
	h-2.8c0.2-2,0.9-4.4,0.9-6.8V10l-0.5-0.2c-0.4-0.3-0.9-0.5-1.3-0.5c-0.3,0,0,0.2-0.3,0.7l0,0v0.2c0,2.1-1.1,4.8-1.3,6.8h-2.1
	c0-1,0.1-0.6,0.1-0.6c0.2-0.3,0.3-1,0.1-1.7l0-0.2l-0.1-0.1c-1.3-1.3-2.5-2.2-3.6-3L16.5,11h-0.2c-0.5,0-0.5,0.4-0.8,0.7
	c-0.3,0.3-0.3,0.7-0.2,1.2l0,0.2l0.2,0.6c1.2,0.9,2.3,2.3,3.3,3.3h-4.6l0,0c-0.4,0.1-0.6,0.1-0.6,0.5s0.2,0.9,0.5,1.2l0.1,0.3h7.9
	c-0.4,1-0.9,2-1.4,3h-9l-0.1-0.3c-0.4,0.3-0.7,0.5-0.7,0.9s0.2,0.9,0.7,1.2l0.1,0.2h7.2c-2,2-4.7,3.5-8.2,4.9l-0.1-0.1l-0.1,0
	c-0.2,0.2-0.7,0.8-0.4,1.4c0.2,0.4,0.6,0.6,1.2,0.8l0.1,0l0.1-0.1c2.2-1,4.3-2.1,6.1-3.3c0.1,0.3,0.3,0.8,0.5,0.8l0.1,0.4h4
	c-0.9,4-4,6.5-9.3,7.6l-0.1-0.2l-0.1,0c-0.2,0.2-0.8,0.6-0.7,1.3c0.1,0.6,0.9,0.9,1.1,0.9l0.1,0l0.1,0.3c6.6-1.1,10.4-4,11.4-10h5.4
	c0.3,0,0.6-0.3,0.8-0.1c0.2,0.2,0.2,0.4,0.1,0.7l0,0l0,0c0.1,0.6,0.1,2.1-0.5,5.7c-0.2,0.9-0.6,1.1-1,1.2c-1.3,0.3-2.6,0-4.1-0.9
	l-0.2-0.1l-0.2,0c-0.6,0.1-1.1,0.4-1.3,0.8c-0.2,0.4-0.1,0.9,0.2,1.4l0.1,0.1l0.1,0.1c1.5,0.6,3,1,4.4,1c0.7,0,1.4-0.1,2.1-0.3
	c1.1-0.4,1.8-1.3,2.2-2.7c0.5-2.7,0.6-5,0.5-6.8c0-0.4,0-0.8,0-1.1c1.4,1,2.9,2.1,4.5,3L38,31h0.1c0.5,0,0.9-0.2,1.2-0.6
	C39.5,30.1,39.5,29.6,39.3,29z M30.6,26H20c0.7,0,1.5-1,2.2-2h6.4c0.8,1,1.6,1.4,2.4,2.2C30.8,26.2,30.7,26,30.6,26z"/>
</svg>
