<?xml version="1.0" encoding="utf-8"?>
<!-- Generator: Adobe Illustrator 18.0.0, SVG Export Plug-In . SVG Version: 6.00 Build 0)  -->
<!DOCTYPE svg PUBLIC "-//W3C//DTD SVG 1.1//EN" "http://www.w3.org/Graphics/SVG/1.1/DTD/svg11.dtd">
<svg version="1.1" id="图层_1" xmlns="http://www.w3.org/2000/svg" xmlns:xlink="http://www.w3.org/1999/xlink" x="0px" y="0px"
	 viewBox="0 0 50 50" enable-background="new 0 0 50 50" xml:space="preserve">
<linearGradient id="SVGID_1_" gradientUnits="userSpaceOnUse" x1="0.1183" y1="25" x2="50.1183" y2="25">
	<stop  offset="0" style="stop-color:#EE5A49"/>
	<stop  offset="1" style="stop-color:#FFA4A9"/>
</linearGradient>
<path fill="url(#SVGID_1_)" d="M41.9,0H8.4C3.8,0,0.1,3.7,0.1,8.2v33.5c0,4.6,3.7,8.2,8.3,8.2h33.5c4.6,0,8.3-3.7,8.3-8.2V8.2
	C50.1,3.7,46.4,0,41.9,0L41.9,0z"/>
<g opacity="0.3">
	<g>
		<path fill="#FFFFFF" stroke="#FEFEFE" stroke-miterlimit="10" d="M31,29.4c-0.3,0.1-0.4,0.3-0.3,0.5c0.1,0.2,0.3,0.3,0.6,0.2
			l6.6-2.2c0.3-0.1,0.4-0.3,0.3-0.5s-0.3-0.3-0.6-0.2L31,29.4z"/>
		<path fill="#FFFFFF" stroke="#FEFEFE" stroke-miterlimit="10" d="M36.7,26.8c-0.1-1.4,0.4-3.5,0.4-3.5s-5.5-0.1-6.3,1.1
			c-0.3,0.5,1.2,1.4,0.9,1.9c-0.3,0.5-2.4,0.8-2.4,0.8s1.1,0.8,1.8,1.7L36.7,26.8z"/>
	</g>
	<g>
		<polygon fill="#FFFFFF" stroke="#FEFEFE" stroke-miterlimit="10" points="39.1,36.2 38.1,39.6 35.3,37.5 34.2,37.9 36.1,39.2 
			35.2,39.6 35.4,40.1 36.7,39.7 37.7,40.3 36,40.9 36.1,41.5 38,40.8 38.6,42.8 39.6,42.4 39,40.5 40.9,39.9 40.7,39.3 38.9,39.9 
			39.3,38.8 40.6,38.4 40.4,37.8 39.5,38.1 40.2,35.9 		"/>
		<path fill="#FFFFFF" stroke="#FEFEFE" stroke-miterlimit="10" d="M38.2,28.3c-0.1,0-0.1,0.1-0.2,0.1l-6.5,2.2
			c-0.1,0-0.2,0.1-0.3,0.1c-3.4,5-4.1,11-3.1,14.1c1.3,4,7.6,5.5,13.1,3.7s9.5-6.8,8.2-10.8C48.2,34.5,44.1,30.6,38.2,28.3z
			 M39.6,43.9c-2.9,1-5.9-0.1-6.7-2.4c-0.8-2.3,0.9-5,3.8-6c2.9-1,5.9,0.1,6.7,2.4S42.5,43,39.6,43.9z"/>
	</g>
</g>
<path fill="#FFFFFF" d="M38.7,36.9c-3.2-1.4-6-3.9-8.2-6.9h8.4l0.1-0.2c0.4-0.3,0.7-0.7,0.7-1.1s-0.2-1-0.7-1.3L38.9,27h-1.5l0-5.8
	c0.2-1.1,0-1.8-0.5-2.4c-0.5-0.6-1.4-0.8-2.6-0.8H32c0.9-1,1.6-2.2,2-3c0.3-0.8,0.3-1.4-0.1-1.9c-0.5-0.7-1.5-1-3.2-1h-4.1l0.2-0.4
	l-0.1-0.2c-0.3-0.8-0.8-1-1.1-1c-0.4,0-0.7,0.2-1.1,0.6l-0.1,0.1c-0.9,2-2.3,4-4.1,6l-0.1,0.1l0,0.1c-0.1,0.3-0.1,0.5,0,0.7
	c-0.1-0.1-0.2,0-0.4-0.1L19.7,18H17v-6.6l0-0.1c-0.7-1.1-1.4-1.1-2.1,0l0.1,0.1V18h-3.2l-0.1-0.1c-0.4,0.3-0.7,0.6-0.7,1
	s0.2,0.7,0.7,1.1l0.1,0.1H15v6.2l-3.7,2l-0.1,0.1c-0.1,0.2-0.5,0.7-0.2,1.2c0.3,0.6,1,0.4,1.3,0.4h0.1l2.6-1v7.4
	c0,0.1-0.1,0.2-0.5,0.2c-0.4,0-1.1-0.1-2.5-0.7l-0.2-0.1l-0.2,0c-0.5,0.1-0.9,0.3-1.1,0.7c-0.2,0.4-0.1,0.9,0.2,1.4l0.1,0.2l0.2,0.1
	c1.4,0.4,2.4,0.7,3.3,0.7c2.1,0,2.5-1.3,2.5-2.1v-9.1l2.7-1.7l0.2-0.2c0.3-0.5,0.4-1,0.2-1.3C19.8,24,19,24,18.8,24h-0.2L17,24.9V20
	h2.7l0.1-0.1c0.4-0.3,0.7-0.7,0.7-1.1c0-0.1,0-0.2,0-0.2c0.2,0.2,0.6,0.4,1.3,0.2l0.1,0c-0.6,0.6-0.8,1.4-0.8,2.6V27h-2.1l-0.1,0.3
	c-0.4,0.3-0.7,0.8-0.7,1.2s0.2,0.9,0.7,1.2l0.1,0.2h7.6c-1.3,3-4.1,5.3-8.1,7.2l-0.1,0l-0.1,0.1c-0.3,0.5-0.4,1-0.2,1.4
	c0.3,0.6,1.1,0.6,1.3,0.6l0.2,0c4.3-1.9,7.3-4.6,9-7.9c2.9,4,6.1,6.7,9.6,7.9l0.1,0l0.1,0c0.6-0.1,1-0.4,1.1-0.8
	c0.2-0.6-0.3-1.1-0.6-1.5L38.7,36.9z M23,27v-5.6c0-0.7,0.5-0.4,1.2-0.4h3.7l-0.6,6H23z M30.3,21H34c0.4,0,0.7-0.2,0.9,0
	c0.1,0.1,0.1,0,0.1,0.4V27h-5.4L30.3,21z M30.7,14c0.5,0,0.7,0.2,0.8,0.3c0,0,0,0.1-0.1,0.2c-0.7,1.2-1.6,2.6-2.6,3.6h-4.9
	c-0.8,0-1.4,0-1.9,0.3c1.3-1.3,2.4-2.3,3.3-4.3H30.7z"/>
</svg>
