<?xml version="1.0" encoding="utf-8"?>
<!-- Generator: Adobe Illustrator 18.0.0, SVG Export Plug-In . SVG Version: 6.00 Build 0)  -->
<!DOCTYPE svg PUBLIC "-//W3C//DTD SVG 1.1//EN" "http://www.w3.org/Graphics/SVG/1.1/DTD/svg11.dtd">
<svg version="1.1" id="图层_1" xmlns="http://www.w3.org/2000/svg" xmlns:xlink="http://www.w3.org/1999/xlink" x="0px" y="0px"
	 viewBox="0 0 50 50" enable-background="new 0 0 50 50" xml:space="preserve">
<linearGradient id="SVGID_1_" gradientUnits="userSpaceOnUse" x1="-4.999924e-002" y1="25.05" x2="49.95" y2="25.05" gradientTransform="matrix(1 0 0 -1 0 50)">
	<stop  offset="0" style="stop-color:#EE5A49"/>
	<stop  offset="1" style="stop-color:#FFA4A9"/>
</linearGradient>
<path fill="url(#SVGID_1_)" d="M41.7,0H8.3C3.7,0,0,3.7,0,8.2v33.5c0,4.6,3.7,8.2,8.3,8.2h33.5c4.6,0,8.3-3.7,8.3-8.2V8.2
	C50,3.7,46.3,0,41.7,0L41.7,0z"/>
<g opacity="0.2">
	<polygon fill="#FEFEFE" points="29.5,34.4 29.5,35 28.8,44.6 23.6,36.6 23.6,35.9 20.5,36.6 20.8,37.5 20.8,37.7 27.7,48.6 
		28.3,49.5 29.3,49.2 30.4,49 31.4,48.7 31.5,47.6 32.5,34.9 32.2,33.7 	"/>
	<polygon fill="#FEFEFE" points="33.1,33.4 36.7,47.3 39.6,46.6 36,32.7 	"/>
	<path fill="#FEFEFE" d="M49.7,33.9c-0.5-1.9-2.4-3.3-4.6-3.3c-0.4,0-0.9,0.1-1.3,0.2l-5.8,1.5l3.4,14l2.9-0.8l-1.3-5.2l2.9-0.8
		C48.6,38.8,50.3,36.3,49.7,33.9z M45.3,36.7l-2.9,0.8l-0.9-3.3l2.9-0.8c1-0.2,2.2,0.3,2.4,1.1C47.1,35.4,46.4,36.4,45.3,36.7z"/>
</g>
<g>
	<path fill="#FFFFFF" d="M39.5,20.9v-0.1l-0.1-0.1c-4.5-2.6-8.7-5.8-12.6-9.6c-1.1-0.9-2.3-0.9-3.3,0c-3.9,4-8.1,7.2-12.8,9.5
		l-0.1,0.1l-0.1,0.2c-0.1,0.2-0.5,0.8-0.2,1.4s1.1,0.6,1.3,0.6h0.2c3.9-1.7,8.2-4.8,12.9-9.3c0.1-0.1,0.2-0.3,0.4-0.3
		c0.1,0,0.3,0.1,0.5,0.3c4.5,4.2,8.8,7.4,12.5,9.3l0.1,0.1h0.1c0.5,0,0.9-0.2,1.2-0.5C39.7,22,39.7,21.5,39.5,20.9z"/>
	<path fill="#FFFFFF" d="M37.2,25.8L37,25.9H13l-0.1-0.1c-0.4,0.3-0.7,0.6-0.7,1s0.2,0.7,0.7,1H13h7c-1.4,2-2.9,4.8-4.5,7.2
		c-0.5,0.9-0.6,1.5-0.3,2s1,0.8,2.1,0.8l0,0c4,0,9.5-0.4,16.3-0.9c0.1,0.4,0.2,0.8,0.3,1.3l0.1,0.2c0.4,0.5,0.8,0.7,1.1,0.7
		c0.5,0,0.9-0.4,1.1-1.1v-0.1v-0.2c-0.8-2.7-1.9-5.4-3.3-8.1l-0.1-0.2l-0.2-0.1c-0.3-0.1-0.3-0.2-0.5-0.2c-0.3,0-0.9,0.1-0.9,1.3
		v0.5L31,31c0.5,1,1,2.3,1.7,4C26.9,35.3,22,35.5,18,35.7c-0.1,0-0.1,0-0.2,0c1.4-2.1,2.9-4.7,4.7-7.7h14.2l0.1-0.1
		c0.5-0.3,0.8-0.6,0.8-1S37.8,26.1,37.2,25.8z"/>
	<path fill="#FFFFFF" d="M17.6,21.9h15.3H33c0.5-0.3,0.8-0.7,0.8-1.1s-0.3-0.7-0.8-1l-0.1,0.1H17.6h-0.1c-0.6,0.3-0.8,0.7-0.8,1.1
		s0.3,0.7,0.8,1L17.6,21.9z"/>
</g>
</svg>
