<?xml version="1.0" encoding="utf-8"?>
<!-- Generator: Adobe Illustrator 18.0.0, SVG Export Plug-In . SVG Version: 6.00 Build 0)  -->
<!DOCTYPE svg PUBLIC "-//W3C//DTD SVG 1.1//EN" "http://www.w3.org/Graphics/SVG/1.1/DTD/svg11.dtd">
<svg version="1.1" id="图层_1" xmlns="http://www.w3.org/2000/svg" xmlns:xlink="http://www.w3.org/1999/xlink" x="0px" y="0px"
	 viewBox="0 0 50 50" enable-background="new 0 0 50 50" xml:space="preserve">
<g>
	<g>
		<path fill="#EE5A49" d="M41.8,3C44.7,3,47,5.4,47,8.3v33.5c0,2.9-2.4,5.3-5.3,5.3H8.3C5.4,47,3,44.7,3,41.8V8.3C3,5.4,5.4,3,8.3,3
			H41.8 M41.8,0H8.3C3.7,0,0,3.7,0,8.3v33.5C0,46.3,3.7,50,8.3,50h33.5c4.6,0,8.3-3.7,8.3-8.2V8.3C50,3.7,46.3,0,41.8,0L41.8,0z"/>
	</g>
</g>
<path fill="#EE5A49" d="M38.9,31.1l-0.1-0.1c-0.7-0.9-1.5-0.9-2.2,0l-0.1,0.1l0,0.2c0.1,3.3-0.3,4.5-0.7,4.9
	c-0.1,0.1-0.3,0.2-0.5,0.2c0,0-0.1,0-0.2,0l-5.2,0c-0.1,0-0.2,0-0.3,0c-0.2,0-0.6,0-0.6-0.9V24.9l5.6-0.2c0.4,0.6,1,1.4,1.7,2.4
	l0.1,0.1l0.2,0.1c0.9,0.3,1.4,0,1.6-0.2c0.2-0.3,0.3-0.7,0.2-1.3l-0.1-0.2c-2.2-3.3-4.7-6.5-7.3-9.3L30.9,16h7.1l0.1,0.1
	c0.5-0.3,0.8-0.6,0.8-1.1s-0.3-0.7-0.8-1l-0.1,0H26.5c-0.4-1-1-2.3-1.5-3.3l-0.1-0.1l-0.1-0.1c-0.3-0.2-0.6-0.3-0.9-0.3
	c-0.4,0-1,0.2-1.2,1.4l0,0.2l0.1,0.2c0.5,0.7,0.8,1.1,1.1,2.1H11.8l-0.1,0c-0.5,0.3-0.8,0.7-0.8,1.1s0.3,0.7,0.8,1l0.1-0.1h9.7
	c-2.5,4-5,6.1-7.3,6.9c-0.5,0.3-0.8,0.8-0.8,1.2s0.3,0.8,0.8,1.2l0.1,0.1l5.3-0.2c0.3,6.1-2.3,9.8-7.9,11.4l-0.2,0l-0.1,0.1
	c-0.3,0.4-0.4,0.8-0.3,1.2c0.1,0.4,0.5,0.7,1,0.9l0.2,0.1l0.2,0c6.6-1.9,10-6.5,9.7-13.8L27,25v11c0,0.9,0,1.6,0.5,2.1
	c0.5,0.5,1,0.9,1.9,0.9c0.1,0,0.2,0.1,0.3,0.1h5.6c0.9,0,1.6-0.3,2.2-0.9c1.1-1.1,1.5-3.4,1.4-6.8L38.9,31.1z M29,17.6v0.2l0.1,0.1
	c0.8,0.8,2.1,2.3,3.8,4.3l-14.1,0.5c1.9-1.7,3.8-3.8,5.6-6.8h5.4C29.3,16,29,17,29,17.6z"/>
<g opacity="0.3">
	<g>
		<g>
			<path fill="#EE5A49" d="M32,36.4c2.9,0,5.3,2.4,5.3,5.3S34.9,47,32,47s-5.3-2.4-5.3-5.3S29.1,36.4,32,36.4 M32,33.4
				c-4.6,0-8.3,3.7-8.3,8.3c0,4.6,3.7,8.3,8.3,8.3c4.6,0,8.3-3.7,8.3-8.3C40.3,37.1,36.6,33.4,32,33.4L32,33.4z"/>
		</g>
	</g>
</g>
<g opacity="0.3">
	<g>
		<g>
			<path fill="#EE5A49" d="M41.9,36.4c2.9,0,5.3,2.4,5.3,5.3S44.8,47,41.9,47s-5.3-2.4-5.3-5.3S39,36.4,41.9,36.4 M41.9,33.4
				c-4.6,0-8.3,3.7-8.3,8.3c0,4.6,3.7,8.3,8.3,8.3s8.3-3.7,8.3-8.3C50.1,37.1,46.4,33.4,41.9,33.4L41.9,33.4z"/>
		</g>
	</g>
</g>
</svg>
