<?xml version="1.0" encoding="utf-8"?>
<!-- Generator: Adobe Illustrator 18.0.0, SVG Export Plug-In . SVG Version: 6.00 Build 0)  -->
<!DOCTYPE svg PUBLIC "-//W3C//DTD SVG 1.1//EN" "http://www.w3.org/Graphics/SVG/1.1/DTD/svg11.dtd">
<svg version="1.1" id="图层_1" xmlns="http://www.w3.org/2000/svg" xmlns:xlink="http://www.w3.org/1999/xlink" x="0px" y="0px"
	 viewBox="0 0 50 50" enable-background="new 0 0 50 50" xml:space="preserve">
<path fill="#EE5A49" d="M39.3,29.6l-0.1-0.2l-0.2-0.2c-2.7-1.5-5-3.3-7-5.3h6l0.1,0c0.4-0.3,0.7-0.6,0.7-1s-0.2-0.6-0.7-1l-0.1,0
	H23.5c0.4-1,0.8-2,1.2-3H35l0.1-0.1c0.4-0.3,0.7-0.7,0.7-1.1s-0.2-1.1-0.7-1.4L35,16h-5.8l0,0.3c1.3-1,2.5-2.1,3.7-3.7l0,0v-0.2
	c0-1.1-0.5-1.7-1.7-1.4l-0.1,0l-0.1,0.1c-1.1,1.4-2.2,2.5-3.4,3.4l-0.1,0.1l0,0.1c-0.1,0.2-0.5,0.6-0.1,1.1c0.1,0.2,0.3,0.1,0.5,0.1
	h-2.8c0.2-1-0.1-2.8-0.1-5.2v-0.3l0-0.2c-0.4-0.3-0.6-0.5-1-0.5c-0.3,0-0.7,0.1-1,0.6L23,10.7v0.2c0,2.1,0,4.2-0.3,5.2h-2.1
	c0,0,0.1,0.3,0.1,0.2c0.2-0.3,0.3-0.6,0.1-1.3l0,0l-0.1,0c-1.3-1.3-2.5-2.2-3.6-2.9L17,12h-0.2c-0.5,0-0.9,0-1.2,0.3
	c-0.3,0.3-0.3,0.7-0.2,1.2l0,0.2l0.2-0.2c1.2,0.9,2.3,1.5,3.3,2.5h-4.6l-0.1,0.5c-0.3,0.3-0.5,0.9-0.5,1.2s0.2,0.8,0.5,1.1l0.1,0.2
	h7.9c-0.4,1-0.9,2-1.4,3h-9l-0.1,0c-0.4,0.3-0.7,0.7-0.7,1.1s0.2,0.6,0.7,1l0.1,0h7.2c-2,2-4.7,3.8-8.2,5.2l-0.1,0.1l-0.1,0.1
	c-0.2,0.2-0.7,0.8-0.4,1.5c0.2,0.4,0.6,0.7,1.2,0.8l0.1,0l0.1-0.1c2.2-1,4.3-2.1,6.1-3.3c0.1,0.3,0.3,0.4,0.5,0.5l0.1,0.1h4
	c-0.9,4-4,6.9-9.3,7.9l-0.1,0l-0.1,0.1c-0.2,0.2-0.8,0.6-0.7,1.3c0.1,0.6,0.9,0.9,1.1,1l0.1,0l0.1,0C20,38.2,23.8,34,24.7,29h5.4
	c0.3,0,0.6,0,0.8,0.2c0.2,0.2,0.2,0.5,0.1,0.8l0,0.1l0,0.1c0.1,0.9,0,2.8-0.5,5.7c-0.2,0.9-0.6,1.2-1,1.2c-1.3,0.3-2.6,0-4.1-0.9
	l-0.2-0.1l-0.2,0c-0.6,0.1-1.1,0.4-1.3,0.8c-0.2,0.4-0.1,0.9,0.2,1.4l0.1,0.1l0.1,0.1c1.5,0.6,3,1,4.4,1c0.7,0,1.4-0.1,2.1-0.3
	c1.1-0.4,1.8-1.3,2.2-2.7c0.5-2.7,0.6-5,0.5-6.8c0-0.4,0-0.8,0-1.1c1.4,1,2.9,1.8,4.5,2.7L38,31h0.1c0.5,0,0.9,0.1,1.2-0.2
	C39.5,30.4,39.5,30.2,39.3,29.6z M30.6,26H20c0.7,0,1.5-1,2.2-2h6.4c0.8,1,1.6,1.4,2.4,2.2C30.8,26.2,30.7,26,30.6,26z"/>
<g>
	<g>
		<path fill="#EE5A49" d="M43.6,15.2L43.6,15.2c-1,0-1.8-0.8-1.8-1.8v0c0-1,0.8-1.8,1.8-1.8h0c1,0,1.8,0.8,1.8,1.8v0
			C45.5,14.3,44.6,15.2,43.6,15.2z"/>
	</g>
</g>
<g>
	<g>
		<path fill="#EE5A49" d="M43.6,20.8L43.6,20.8c-1,0-1.8-0.8-1.8-1.8v0c0-1,0.8-1.8,1.8-1.8h0c1,0,1.8,0.8,1.8,1.8v0
			C45.5,20,44.6,20.8,43.6,20.8z"/>
	</g>
</g>
<g>
	<g>
		<path fill="#EE5A49" d="M43.6,26.8L43.6,26.8c-1,0-1.8-0.8-1.8-1.8v0c0-1,0.8-1.8,1.8-1.8h0c1,0,1.8,0.8,1.8,1.8v0
			C45.5,26,44.6,26.8,43.6,26.8z"/>
	</g>
</g>
<g>
	<g>
		<path fill="#EE5A49" d="M43.6,38.9L43.6,38.9c-1,0-1.8-0.8-1.8-1.8v0c0-1,0.8-1.8,1.8-1.8h0c1,0,1.8,0.8,1.8,1.8v0
			C45.5,38,44.6,38.9,43.6,38.9z"/>
	</g>
</g>
<g>
	<g>
		<path fill="#EE5A49" d="M41.5,0H8C3.5,0,0,3.9,0,8.5v9.7v0.2c3,0.7,5.6,3.6,5.6,7S3,31.7,0,32.4V42c0,4.6,3.5,8,8,8h33.5
			c4.6,0,8.5-3.5,8.5-8V8.5C50,3.9,46.1,0,41.5,0z M47,42c0,2.9-2.6,5-5.5,5H8c-2.9,0-5-2.1-5-5v-8.1c3-1.6,5.4-4.8,5.4-8.6
			S6,18.2,3,16.6V8.5C3,5.6,5.1,3,8,3h33.5C44.4,3,47,5.6,47,8.5V42z"/>
	</g>
</g>
<g>
	<g>
		<path fill="#EE5A49" d="M43.6,32.8L43.6,32.8c-1,0-1.8-0.8-1.8-1.8v0c0-1,0.8-1.8,1.8-1.8l0,0c1,0,1.8,0.8,1.8,1.8v0
			C45.5,32,44.6,32.8,43.6,32.8z"/>
	</g>
</g>
</svg>
