<?xml version="1.0" encoding="utf-8"?>
<!-- Generator: Adobe Illustrator 18.0.0, SVG Export Plug-In . SVG Version: 6.00 Build 0)  -->
<!DOCTYPE svg PUBLIC "-//W3C//DTD SVG 1.1//EN" "http://www.w3.org/Graphics/SVG/1.1/DTD/svg11.dtd">
<svg version="1.1" id="图层_1" xmlns="http://www.w3.org/2000/svg" xmlns:xlink="http://www.w3.org/1999/xlink" x="0px" y="0px"
	 viewBox="0 0 50 50" enable-background="new 0 0 50 50" xml:space="preserve">
<g>
	<g>
		<path fill="#54C0EF" d="M41.7,3C44.6,3,47,5.4,47,8.3v33.5c0,2.9-2.4,5.3-5.3,5.3H8.3c-2.9,0-5.3-2.4-5.3-5.3V8.3
			C3,5.4,5.4,3,8.3,3H41.7 M41.7,0H8.3C3.7,0,0,3.7,0,8.3v33.5C0,46.4,3.7,50,8.3,50h33.4c4.6,0,8.3-3.7,8.3-8.2V8.3
			C50,3.7,46.3,0,41.7,0L41.7,0z"/>
	</g>
</g>
<g>
	<path fill="#54C0EF" d="M22.6,25l0.1-0.1c0.2-0.6,0.2-0.8,0-1.2c-0.3-0.3-0.7-0.3-1.2-0.3h0.2v-0.1c-1,0.5-2,0.8-3,1.3v-6.2h3.4
		h0.1c0.4-0.3,0.7-0.7,0.7-1.1s-0.2-0.6-0.7-1h-0.1h-3.4v-5.5l-0.2-0.1c-0.7-0.9-1.8-0.9-2.4,0l-0.4,0.2v5.5h-4h-0.1
		c-0.4,0.3-0.7,0.7-0.7,1.1s0.2,0.6,0.7,1h0.1h4v7.3c-1,0.7-2.9,1.3-4.4,1.7l-0.1,0.1c-0.2,0.2-0.8,0.7-0.7,1.3
		c0.1,0.6,0.9,0.9,1.1,1h0.1h0.1c1.1-0.3,2.5-0.7,4.1-1.4v6.8c0,0.2,0,0.4-0.1,0.4c-0.1,0.1-0.2,0.1-0.4,0.1c-0.6,0-1.5-0.3-2.8-0.8
		h-0.2c-0.6,0-1.1,0.2-1.3,0.6c-0.2,0.4-0.2,0.9,0.1,1.6l0.1,0.2l0.2,0.1c1.6,0.6,2.9,0.9,4,0.9c0.9,0,1.8-0.3,2.3-0.8
		s0.8-1.3,0.8-2.2v-7.9C19.7,26.6,21.5,25.8,22.6,25L22.6,25z"/>
	<path fill="#54C0EF" d="M38.9,20.3l-0.1,0.1H25.7v-5.1c0-0.3,0-0.7,0.8-0.7c3.6-0.2,6.9-0.6,9.9-1.4h0.1l0.1-0.1
		c0.4-0.4,0.6-0.9,0.5-1.3c-0.1-0.4-0.4-0.7-0.9-0.9L36,10.8h-0.2c-3.1,0.8-6.6,1.2-10,1.4c-2.4,0.2-3.1,1.7-3.1,2.8v7
		c1,6.3-1,11.3-3.7,14.9V37v0.1c-0.1,0.6,0,1,0.2,1.3c0.2,0.2,0.7,0.5,1.6,0.2l0.2-0.1l0.1-0.1c2.9-4,4.4-9.2,4.3-16.2h6.3V38
		l-0.1,0.1c0.3,0.5,0.6,0.8,1,0.8s0.7-0.3,1.1-0.8V38V22.4h5.1l0.1-0.1c0.4-0.3,0.7-0.6,0.7-1S39.3,20.6,38.9,20.3z"/>
</g>
</svg>
