<?xml version="1.0" encoding="utf-8"?>
<!-- Generator: Adobe Illustrator 18.0.0, SVG Export Plug-In . SVG Version: 6.00 Build 0)  -->
<!DOCTYPE svg PUBLIC "-//W3C//DTD SVG 1.1//EN" "http://www.w3.org/Graphics/SVG/1.1/DTD/svg11.dtd">
<svg version="1.1" id="图层_1" xmlns="http://www.w3.org/2000/svg" xmlns:xlink="http://www.w3.org/1999/xlink" x="0px" y="0px"
	 viewBox="0 0 50 50" enable-background="new 0 0 50 50" xml:space="preserve">
<g>
	<g>
		<path fill="#EE5A49" d="M41.7,3.2c2.9,0,5.3,2.4,5.3,5.3v33.5c0,2.9-2.4,5.3-5.3,5.3H8.3c-2.9,0-5.3-2.4-5.3-5.3V8.4
			c0-2.9,2.4-5.3,5.3-5.3H41.7 M41.7,0.2H8.3C3.7,0.2,0,3.9,0,8.4v33.5c0,4.6,3.7,8.2,8.3,8.2h33.5c4.6,0,8.3-3.7,8.3-8.2V8.4
			C50,3.9,46.3,0.2,41.7,0.2L41.7,0.2z"/>
	</g>
</g>
<path fill="#EE5A49" d="M38.6,37c-3.2-1.4-6-4-8.2-7h8.4l0.1-0.1c0.4-0.3,0.7-0.7,0.7-1.1s-0.2-1.1-0.7-1.4L38.8,27h-1.5l0-5.7
	c0.2-1.1,0-1.8-0.5-2.4c-0.5-0.6-1.4-0.9-2.6-0.9h-2.3c0.9-1,1.6-2.1,2-3c0.3-0.8,0.3-1.5-0.1-2c-0.5-0.7-1.5-1.1-3.2-1.1h-4.1
	l0.2-0.4l-0.1-0.2c-0.3-0.8-0.8-0.9-1.1-0.9c-0.4,0-0.7,0.2-1.1,0.6l-0.1,0.1c-0.9,2-2.3,4-4.1,6l-0.1,0.1l0,0.1
	C20,17.7,20,18,20,18.2c-0.1-0.1-0.2-0.1-0.4-0.2l-0.1,0H17v-6.5l0-0.1c-0.7-1.1-1.4-1.1-2.1,0l0.1,0.1V18h-3.3l-0.1,0
	c-0.4,0.3-0.7,0.6-0.7,1s0.2,0.7,0.7,1l0.1,0H15v6.4l-3.8,2l-0.2,0.1c-0.1,0.2-0.5,0.6-0.2,1.1c0.3,0.6,1,0.3,1.3,0.3h0.1l2.8-0.8
	v7.4c0,0.1-0.2,0.2-0.6,0.2c-0.4,0-1.2-0.1-2.5-0.7L11.7,36l-0.2,0c-0.5,0.1-0.9,0.3-1.1,0.7c-0.2,0.4-0.1,0.9,0.2,1.4l0.1,0.2
	l0.2,0.1c1.4,0.4,2.5,0.7,3.4,0.7c2.1,0,2.6-1.3,2.6-2.1v-9.1l2.6-1.7l0.2-0.2c0.3-0.5,0.4-1.1,0.2-1.4C19.7,24,18.9,24,18.7,24
	h-0.2L17,25.1V20h2.5l0.1,0c0.4-0.3,0.7-0.7,0.7-1.1c0-0.1,0-0.1,0-0.2c0.2,0.2,0.6,0.4,1.3,0.3l0.2,0c-0.6,0.6-0.8,1.4-0.8,2.6V27
	h-2.3l-0.1,0.4c-0.4,0.3-0.7,0.9-0.7,1.3s0.2,0.8,0.7,1.2l0.1,0.2h7.6c-1.3,3-4.1,5.4-8.1,7.2l-0.1,0.1L18,37.4
	c-0.3,0.5-0.4,1-0.2,1.4c0.3,0.6,1.1,0.6,1.3,0.6l0.2,0c4.3-1.9,7.3-4.6,9-7.9c2.9,4,6.1,6.7,9.6,7.9l0.1,0l0.1,0
	c0.6-0.1,1-0.4,1.1-0.8c0.2-0.6-0.3-1.1-0.6-1.5L38.6,37z M23,27v-5.5c0-0.7,0.4-0.5,1.1-0.5h3.7l-0.6,6H23z M30.1,21h3.8
	c0.4,0,0.8-0.1,0.9,0c0.1,0.1,0.2,0.1,0.2,0.5V27h-5.5L30.1,21z M30.6,14c0.5,0,0.7,0.3,0.8,0.3c0,0,0,0.1-0.1,0.1
	c-0.7,1.2-1.6,2.5-2.6,3.5h-4.9c-0.8,0-1.4,0-1.9,0.3c1.3-1.3,2.4-2.3,3.3-4.3H30.6z"/>
<g opacity="0.3">
	<g>
		<g>
			<g>
				<path fill="#EE5A49" d="M30.9,29.5c-0.3,0.1-0.4,0.3-0.3,0.5c0.1,0.2,0.3,0.3,0.6,0.2l6.6-2.2c0.3-0.1,0.4-0.3,0.3-0.5
					c-0.1-0.2-0.3-0.3-0.6-0.2L30.9,29.5z"/>
			</g>
		</g>
		<g>
			<g>
				<path fill="#EE5A49" d="M36.6,27c-0.1-1.4,0.4-3.5,0.4-3.5s-5.5-0.1-6.3,1.1c-0.3,0.5,1.2,1.4,0.9,1.9c-0.3,0.5-2.4,0.8-2.4,0.8
					s1.1,0.8,1.8,1.7L36.6,27z"/>
			</g>
		</g>
	</g>
	<g>
		<g>
			<g>
				<polygon fill="#EE5A49" points="39,36.4 38,39.8 35.2,37.7 34.1,38 36,39.4 35.1,39.7 35.3,40.3 36.6,39.8 37.6,40.5 35.8,41.1 
					36,41.6 37.9,41 38.5,42.9 39.5,42.6 38.8,40.7 40.8,40 40.6,39.5 38.8,40.1 39.1,39 40.4,38.5 40.3,38 39.4,38.3 40.1,36 				
					"/>
			</g>
		</g>
		<g>
			<g>
				<path fill="#EE5A49" d="M38.1,28.5c-0.1,0-0.1,0.1-0.2,0.1l-6.5,2.2c-0.1,0-0.2,0.1-0.3,0.1c-3.4,5-4.1,11-3.1,14.1
					c1.3,4,7.6,5.5,13.1,3.7c5.5-1.8,9.5-6.8,8.2-10.8C48.1,34.7,44,30.8,38.1,28.5z M39.5,44.1c-2.9,1-5.9-0.1-6.7-2.4
					c-0.8-2.3,0.9-5,3.8-6c2.9-1,5.9,0.1,6.7,2.4S42.4,43.1,39.5,44.1z"/>
			</g>
		</g>
	</g>
</g>
</svg>
