<?xml version="1.0" encoding="utf-8"?>
<!-- Generator: Adobe Illustrator 18.0.0, SVG Export Plug-In . SVG Version: 6.00 Build 0)  -->
<!DOCTYPE svg PUBLIC "-//W3C//DTD SVG 1.1//EN" "http://www.w3.org/Graphics/SVG/1.1/DTD/svg11.dtd">
<svg version="1.1" id="图层_1" xmlns="http://www.w3.org/2000/svg" xmlns:xlink="http://www.w3.org/1999/xlink" x="0px" y="0px"
	 viewBox="0 0 50 50" enable-background="new 0 0 50 50" xml:space="preserve">
<g>
	<g>
		<path fill="#F47A62" d="M41.7,3C44.6,3,47,5.4,47,8.3v33.5c0,2.9-2.4,5.3-5.3,5.3H8.3c-2.9,0-5.3-2.4-5.3-5.3V8.3
			C3,5.4,5.4,3,8.3,3H41.7 M41.7,0H8.3C3.7,0,0,3.7,0,8.3v33.5C0,46.4,3.7,50,8.3,50h33.5c4.6,0,8.3-3.7,8.3-8.2V8.3
			C50,3.7,46.3,0,41.7,0L41.7,0z"/>
	</g>
</g>
<path fill="#F47A62" d="M39.1,30v-0.1L39,29.8c-0.7-1.1-1.6-1.1-2.3,0l-0.1,0.1V30c0.2,5.5-0.5,6.2-0.5,6.3
	c-1.5-0.6-3.6-3.9-4.5-12.9H38l0.1-0.2c0.5-0.3,0.8-0.8,0.8-1.2s-0.3-1-0.8-1.3L38,20.4h-6.5c-0.1-2-0.1-4.2,0-5.9
	c1.9-0.2,3.4-0.3,4.6-0.6h0.1l0.1-0.1c0.4-0.4,0.6-0.9,0.5-1.3c-0.1-0.4-0.4-0.7-0.9-0.9l-0.1-0.1h-0.1c-3.7,0.6-7.1,1-10.1,1
	c-0.6,0-1.2,0-1.8,0C22,12.4,21,13.4,21,15.3v2c-1-0.2-0.4-0.5-0.7-0.7l-0.1-0.2H17v-5l0.1-0.1c-0.7-1.1-1.5-1.1-2.1,0v0.1v5h-3.5
	l-0.1,0.2c-0.4,0.3-0.7,0.8-0.7,1.2s0.2,1,0.7,1.3l0.1,0.3H15v6.8c-2,0.6-2.6,1.1-3.7,1.5l-0.2,0.1L11,27.9c-0.3,0.6-0.4,1-0.3,1.4
	c0.2,0.4,0.5,0.6,1,0.7h0.1h0.1c0.8-0.3,1.7-0.6,2.9-1.1v6.8c0,0.3,0,0.5-0.1,0.6c0,0.1-0.2,0.1-0.3,0.1c-0.4,0-1.1-0.2-1.9-0.5
	l-0.1-0.1h-0.1c-0.6,0.1-1,0.4-1.2,0.8c-0.2,0.6,0.3,1.2,0.4,1.4l0.1,0.1h0.1c1.2,0.4,2,0.6,2.7,0.6c1.7,0,2.5-1,2.5-2.7v-8.3
	c1-0.6,3-1.2,4-1.8v10.5c0,0.8,0.1,1.3,0.3,1.8c0.4,0.7,1.2,1,2.2,0.6c1.6-0.7,3.2-2.1,4.7-4.1c1,1.4,1.9,2.8,2.7,4.2l0.1,0.1
	l0.1,0.1c0.3,0.2,0.6,0.3,0.9,0.3c0.3,0,1-0.1,1-1.4v-0.2c-0.6-1.6-1.7-3.2-3.1-4.8l-0.1-0.1c-0.3-0.2-0.6-0.3-0.9-0.3
	c-0.2,0-0.7,0.1-0.9,0.6c-0.3-0.2-0.6-0.3-0.8-0.3c-0.2,0-0.4,0-0.7,0.2h-0.1L26,33c-1.8,2.3-3,2.9-3,3V23.4h6.2
	c0.8,9,3,14.7,6.7,15.5c0.8,0.1,1.4-0.2,1.9-0.7C38.9,37.1,39.3,34.3,39.1,30z M21,24.2c-1-0.2-0.6,0.2-0.9,0.2H20l-3,0.9v-5.9h3.2
	l0.1-0.2c0.3-0.2-0.3-0.5,0.7-0.7C21,18.5,21,24.2,21,24.2z M32,38.7L32,38.7L32,38.7L32,38.7z M29.1,20.4H23v-4.7
	c0-0.9,0.6-0.9,0.8-0.9c0.1,0,0.3,0,0.4,0c1.8,0,3.5-0.2,4.9-0.3C29,16.2,29,18.4,29.1,20.4z"/>
</svg>
