<?xml version="1.0" encoding="utf-8"?>
<!-- Generator: Adobe Illustrator 18.0.0, SVG Export Plug-In . SVG Version: 6.00 Build 0)  -->
<!DOCTYPE svg PUBLIC "-//W3C//DTD SVG 1.1//EN" "http://www.w3.org/Graphics/SVG/1.1/DTD/svg11.dtd">
<svg version="1.1" id="图层_1" xmlns="http://www.w3.org/2000/svg" xmlns:xlink="http://www.w3.org/1999/xlink" x="0px" y="0px"
	 viewBox="0 0 50 50" enable-background="new 0 0 50 50" xml:space="preserve">
<g>
	<g>
		<path fill="#AF94F8" d="M41.8,3C44.7,3,47,5.4,47,8.3v33.5c0,2.9-2.4,5.3-5.3,5.3H8.3c-2.9,0-5.3-2.4-5.3-5.3V8.3
			C3,5.4,5.4,3,8.3,3H41.8 M41.8,0H8.3C3.7,0,0,3.7,0,8.3v33.5C0,46.4,3.7,50,8.3,50h33.5c4.6,0,8.3-3.7,8.3-8.2V8.3
			C50,3.7,46.3,0,41.8,0L41.8,0z"/>
	</g>
</g>
<g>
	<path fill="#AF94F8" d="M25.9,26.3h8.8c0.2,0,0.3,0,0.4,0c0.9,0,1.6-0.3,2-0.8c0.5-0.5,0.7-1.3,0.6-2.3v-8.4
		c0.1-0.9-0.1-1.8-0.6-2.4c-0.6-0.6-1.5-1.1-2.7-1.1h-8.7c-2,0-2.7,1.5-2.7,3.6v8.2C23,26.3,25,26.4,25.9,26.3z M35.3,23.3
		c0,0.2,0,0.4,0,0.5c-0.1,0.1-0.2,0.4-0.4,0.4c-0.1,0-0.2,0.2-0.4,0.2h-8.5v-0.2c-0.1,0-0.2-0.1-0.3-0.1C25.4,24.1,25,24,25,23v-8
		c0-0.7,0.3-0.6,1-0.6h8.2c0.5,0,0.9,0,1.1,0.1c0.1,0.1,0.1,0.2,0.1,0.6L35.3,23.3z"/>
	<path fill="#AF94F8" d="M38.9,36.7C38,34.2,36.5,31,34.7,27l-0.1-0.1l-0.1-0.1c-0.4-0.2-0.7-0.3-1-0.3s-0.9,0.1-1.1,1.1v0.2
		l0.1,0.2c1.7,3.6,3.1,6.8,4.2,9.6l0.1,0.2l0.1,0.1c0.4,0.2,0.7,0.3,1,0.3s0.9-0.1,1.2-1.1V37L38.9,36.7z"/>
	<path fill="#AF94F8" d="M26.5,26.6c-0.3,0-0.7,0.2-1.1,0.5l-0.1,0.1v0.1c-0.9,2.4-2.7,5.6-5.1,9.3L20,36.7v0.2
		c0,1.2,0.9,1.3,1.1,1.3s0.5-0.1,0.8-0.2l0.1-0.1l0.1-0.1c2-2.8,3.9-6.1,5.4-9.7l0.1-0.1v-0.1C27.4,26.8,26.9,26.6,26.5,26.6z"/>
	<path fill="#AF94F8" d="M22,26.8v-0.1l-0.2-0.1c-0.9-1.7-1.8-3.7-3.8-6v-0.2h3l0.1-0.2c0.4-0.3,0.7-0.7,0.7-1.1s-0.2-1-0.7-1.3
		L21,17.4h-3V14c1-0.3,2.4-0.7,3.3-1.1l0.1-0.1l0.1-0.1c0.1-0.2,0.5-0.9,0.2-1.4c-0.2-0.3-0.6-0.5-1.1-0.5h-0.2
		c-2.3,0.8-5,1.3-8.1,1.6l-0.2,0.1c-0.5,0.3-0.8,0.7-0.8,1.1s0.3,0.6,0.8,0.9l0.1-0.2h0.1c0.5,0,1.6,0.3,3.6,0.1v3h-4.3l-0.1,0.3
		c-0.4,0.3-0.7,0.8-0.7,1.2s0.2,0.9,0.7,1.2l0.1,0.2h3.7c-1.1,3-2.9,6.2-5.3,9.7l0,0.2c-0.1,0.5,0,0.9,0.2,1.2
		c0.2,0.2,0.8,0.5,1.7,0H12l0.3-0.1c1.4-1.9,2.7-3.7,3.7-5.6v12l-0.1,0.1c0.3,0.4,0.6,0.7,1,0.7s0.7-0.2,1-0.7v-0.1V25
		c0,0.8,1,1.7,1.7,2.8l0.1,0.1l0.1,0.1c0.3,0.2,0.8,0.3,1,0.3C21.2,28.2,22,28.1,22,26.8z"/>
</g>
</svg>
