<?xml version="1.0" encoding="utf-8"?>
<!-- Generator: Adobe Illustrator 18.0.0, SVG Export Plug-In . SVG Version: 6.00 Build 0)  -->
<!DOCTYPE svg PUBLIC "-//W3C//DTD SVG 1.1//EN" "http://www.w3.org/Graphics/SVG/1.1/DTD/svg11.dtd">
<svg version="1.1" id="图层_1" xmlns="http://www.w3.org/2000/svg" xmlns:xlink="http://www.w3.org/1999/xlink" x="0px" y="0px"
	 viewBox="0 0 50 50" enable-background="new 0 0 50 50" xml:space="preserve">
<g>
	<g>
		<path fill="#73E7F4" d="M41.7,3C44.6,3,47,5.4,47,8.3v33.5c0,2.9-2.4,5.3-5.3,5.3H8.3c-2.9,0-5.3-2.4-5.3-5.3V8.3
			C3,5.4,5.4,3,8.3,3H41.7 M41.7,0H8.3C3.7,0,0,3.7,0,8.3v33.5C0,46.4,3.7,50,8.3,50h33.5c4.6,0,8.3-3.7,8.3-8.2V8.3
			C50,3.7,46.3,0,41.7,0L41.7,0z"/>
	</g>
</g>
<path fill="#73E7F4" d="M38.9,24.6l-0.1-0.2H35v-3h3.8l0.1,0.1c0.4-0.3,0.7-0.6,0.7-1s-0.2-0.7-0.7-1.1h-0.1H31v-3h6.1l0.1-0.2
	c0.4-0.3,0.7-0.7,0.7-1.1s-0.2-1-0.7-1.3l-0.1-0.4H31v-2l-0.2-0.1c-0.7-0.9-1.8-0.9-2.5,0L28,11.4v2h-5.3l-0.1,0.4
	c-0.5,0.5-0.7,1-0.6,1.4c0,0.3,0.2,0.7,0.7,1l0.1,0.2H28v3h-6.2l-0.1,0.1c-0.4,0.3-0.7,0.7-0.7,1.1s0.2,0.5,0.7,0.9l0.1-0.1H33v3
	H21.8v0.1c0-0.1-0.1-0.1-0.1-0.1c-0.2-0.3-0.7-0.5-1.7-0.2l-0.2,0.1v0.1c-0.2,0.3-0.8,0.7-0.8,1v-6h2.2l0.1-0.3
	c0.4-0.3,0.7-0.8,0.7-1.2s-0.2-0.9-0.7-1.3l-0.1-0.2H19v-5l-0.2-0.1c-0.7-0.9-1.8-0.9-2.4,0L16,11.4v5h-1c0.1-1,0.3-2.6,0.4-4.5
	v-0.1l-0.1-0.1c-0.7-0.9-1.5-0.9-2.2,0L13,11.8V12c-0.2,4.6-0.9,8.4-2.3,11.3l-0.1,0.1l0.1,0.2c0.4,1.3,1.4,1.5,2.3,0.4l0.1,0.1
	c0.7-1.6,1.3-3.7,1.6-4.7H16v8.1c-1,1.3-3.3,2.5-5.2,3.5l-0.1,0.1v0.2c-0.2,0.6-0.2,1.2,0,1.5s0.6,0.6,1.2,0.6H12v-0.2
	c1.3-0.7,3-1.7,4-2.7v7.9l0.2,0.1c0.7,0.9,1.8,0.9,2.4,0l0.4-0.1v-9.8c1-0.6,1.5-1.4,2.3-2.2c0.1,0.2,0.2,0.5,0.4,0.7l0.1,0.3h1.8
	c-0.1,0-0.2,0-0.2,0.1c-0.2,0.3-0.2,0.7,0,1.2v0.1l0.1,0.1c1.8,1.5,3.5,3.3,4.8,5.3l0.1,0.2l0,0c1.1,0.2,1.6-0.3,1.6-1.4v-0.2
	l0.1,0.1c-1.4-2-2.9-4.4-4.8-5.4h7.4v9c0,0.1,0,0.2-0.1,0.3s-0.3,0.1-0.5,0.1c-0.7,0-1.9-0.4-3.4-1l-0.2-0.1l-0.2,0.1
	c-0.4,0.2-0.7,0.5-0.8,0.9c-0.1,0.4-0.1,0.8,0.1,1.2l0.1,0.2l0.2,0.1c1.8,0.8,3.3,1.2,4.4,1.2c1,0,1.8-0.3,2.2-0.8
	c0.5-0.5,0.5-1.2,0.5-2v-9h3.8l0.1-0.3c0.4-0.3,0.7-0.9,0.7-1.3S39.3,24.9,38.9,24.6z"/>
</svg>
