<svg style="position: absolute; width: 0; height: 0;" width="0" height="0" version="1.1" xmlns="http://www.w3.org/2000/svg" xmlns:xlink="http://www.w3.org/1999/xlink">
<defs>
<symbol id="CHARGE" viewBox="0 0 32 32">
<title>CHARGE</title>
<path fill="#ee5a49" class="path1 fill-color1" d="M26.752 0h-21.44c-2.944 0-5.312 2.368-5.312 5.312v21.44c0 2.88 2.368 5.248 5.312 5.248h21.44c2.944 0 5.312-2.368 5.312-5.248v-21.44c-0.064-2.944-2.432-5.312-5.312-5.312v0z"></path>
<path fill="#fff" class="path2 fill-color10" d="M19.84 22.656c1.856 0 3.392 1.536 3.392 3.392s-1.536 3.392-3.392 3.392-3.392-1.536-3.392-3.392 1.536-3.392 3.392-3.392zM19.84 20.736c-2.944 0-5.312 2.368-5.312 5.312s2.432 5.312 5.312 5.312c2.944 0 5.312-2.368 5.312-5.312s-2.368-5.312-5.312-5.312v0z"></path>
<path fill="#fff" class="path3 fill-color10" d="M26.176 22.656c1.856 0 3.392 1.536 3.392 3.392s-1.536 3.392-3.392 3.392-3.392-1.536-3.392-3.392 1.536-3.392 3.392-3.392zM26.176 20.736c-2.944 0-5.312 2.368-5.312 5.312s2.368 5.312 5.312 5.312 5.312-2.368 5.312-5.312-2.432-5.312-5.312-5.312v0z"></path>
<path fill="#fff" class="path4 fill-color9" d="M24.256 19.264l-0.064-0.064c-0.448-0.576-0.96-0.576-1.408 0l-0.064 0.064v0.128c0.064 2.112-0.192 2.88-0.448 3.136-0.064 0.064-0.192 0.128-0.32 0.128 0 0-0.064 0-0.128 0h-3.328c-0.064 0-0.128 0-0.192 0-0.128 0-0.384 0-0.384-0.576v-6.784l3.584-0.128c0.256 0.384 0.64 0.896 1.088 1.536l0.064 0.064 0.128 0.064c0.576 0.192 0.896 0 1.024-0.128 0.128-0.192 0.192-0.448 0.128-0.832l-0.064-0.128c-1.408-2.112-3.008-4.16-4.672-5.952l-0.064-0.192h4.544l0.064 0.064c0.32-0.192 0.512-0.384 0.512-0.704s-0.192-0.448-0.512-0.64h-7.424c-0.256-0.64-0.64-1.472-0.96-2.112l-0.128-0.128c-0.192-0.128-0.384-0.192-0.576-0.192-0.256 0-0.64 0.128-0.768 0.896v0.128l0.064 0.128c0.32 0.448 0.512 0.704 0.704 1.344h-7.808c-0.32 0.192-0.512 0.448-0.512 0.704s0.192 0.448 0.512 0.64l0.064-0.064h6.208c-1.6 2.56-3.2 3.904-4.672 4.416-0.32 0.192-0.512 0.512-0.512 0.768s0.192 0.512 0.512 0.768l0.064 0.064 3.392-0.128c0.192 3.904-1.472 6.272-5.056 7.296h-0.128l-0.064 0.064c-0.192 0.256-0.256 0.512-0.192 0.768s0.32 0.448 0.64 0.576l0.128 0.064h0.128c4.224-1.216 6.4-4.16 6.208-8.832l3.072-0.128v7.040c0 0.576 0 1.024 0.32 1.344s0.64 0.576 1.216 0.576c0.064 0 0.128 0.064 0.192 0.064h3.584c0.576 0 1.024-0.192 1.408-0.576 0.704-0.704 0.96-2.176 0.896-4.352v-0.192zM17.92 10.624v0.128l0.064 0.064c0.512 0.512 1.344 1.472 2.432 2.752l-9.024 0.32c1.216-1.088 2.432-2.432 3.584-4.352h3.456c-0.32 0.064-0.512 0.704-0.512 1.088z"></path>
</symbol>
<symbol id="COUPON" viewBox="0 0 32 32">
<title>COUPON</title>
<path fill="#ffc943" class="path1 fill-color4" d="M26.688 1.92c1.856 0 3.392 1.536 3.392 3.392v21.504c0 1.856-1.536 3.392-3.392 3.392h-21.376c-1.856 0-3.392-1.536-3.392-3.392v-21.504c0-1.856 1.536-3.392 3.392-3.392h21.376zM26.688 0h-21.376c-2.944 0-5.312 2.368-5.312 5.248v21.504c0 2.944 2.368 5.248 5.312 5.248h21.376c2.944 0 5.312-2.368 5.312-5.248v-21.44c-0.064-2.944-2.432-5.312-5.312-5.312v0z"></path>
<path fill="#ffc943" class="path2 fill-color4" d="M10.496 11.456l0.064 0.064h0.128c0.064 0 0.064 0.064 0.128 0.064 0.192 0 0.64-0.064 0.64-0.96v-0.064l0.064-0.064c-0.704-1.088-1.472-2.304-2.368-3.456v-0.064l-0.064-0.064c-0.128-0.064-0.256-0.128-0.384-0.128-0.32 0-0.64 0.192-0.768 0.96v0.128l0.064 0.128c0.64 0.896 1.472 2.048 2.496 3.456z"></path>
<path fill="#ffc943" class="path3 fill-color4" d="M24.512 23.296l-0.064 0.064h-7.744c-0.896 0-1.728-0.128-2.432-0.384l0.064-0.064c2.048-0.768 3.84-1.92 5.44-3.328 1.088 1.28 1.984 2.304 2.624 3.008l0.064 0.064c0.192 0.128 0.384 0.192 0.576 0.192s0.64-0.064 0.64-0.896v-0.192c-0.576-0.896-1.536-2.048-2.816-3.456 1.344-1.792 2.304-3.648 2.88-5.632 0.128-0.512 0-1.088-0.256-1.408-0.32-0.448-0.96-0.768-1.856-0.768h-7.040v-0.896c0-0.448 0.192-0.896 1.088-0.896 2.88 0.128 5.504 0 7.744-0.32h0.128l0.064-0.064c0.256-0.256 0.384-0.576 0.384-0.832-0.064-0.256-0.256-0.448-0.576-0.576h-0.128c-2.048 0.32-4.672 0.384-7.872 0.32-1.344 0-2.048 0.768-2.048 2.112v2.816c0 3.392-0.576 6.336-1.856 8.576-0.064-0.128-0.192-0.256-0.256-0.448v-5.44c0.064-0.64-0.064-1.024-0.384-1.344-0.32-0.384-0.896-0.448-1.6-0.448h-2.176c-0.32 0.32-0.448 0.576-0.384 0.832 0 0.192 0.128 0.32 0.448 0.512l0.064-0.064h1.856c0.256 0 0.448 0.128 0.512 0.192s0.064 0.256 0.064 0.448v5.12c0.064 0.512-0.32 1.536-2.432 3.328l-0.064 0.064v0.064c-0.128 0.32-0.128 0.512 0 0.704 0.128 0.32 0.384 0.32 0.832 0.32h0.128l0.064 0.064c0.832-0.64 1.6-1.408 2.368-2.368 1.344 1.536 3.328 2.368 5.824 2.368 0.128 0 0.32 0 0.448 0h7.68c0.32-0.192 0.512-0.384 0.512-0.64s-0.192-0.448-0.512-0.704zM13.44 22.592v0c-0.32-0.128-0.64-0.256-0.96-0.512 1.6-2.56 2.368-5.76 2.304-9.6h6.72c0.448 0 0.512 0.064 0.512 0.064s0 0.064-0.064 0.192c-0.448 1.536-1.216 3.008-2.24 4.416-0.896-1.024-2.048-2.304-3.52-3.904l-0.128-0.064c-0.192-0.064-0.32-0.128-0.448-0.128-0.192 0-0.64 0.128-0.768 0.768v0.128l0.128 0.128c1.344 1.6 2.56 3.008 3.712 4.288-1.152 1.152-2.816 2.24-4.928 3.136l-0.128 0.128c-0.128 0.192-0.384 0.64-0.192 0.96z"></path>
</symbol>
<symbol id="COUPONFREE" viewBox="0 0 32 32">
<title>COUPONFREE</title>
<path fill="#ee5a49" class="path1 fill-color1" d="M26.56 0h-21.44c-2.944 0-5.12 2.112-5.12 5.056v6.336c1.92 0.448 3.584 2.304 3.584 4.48s-1.664 4.032-3.584 4.48v6.144c0 2.88 2.176 5.504 5.12 5.504h21.44c2.944 0 5.44-2.624 5.44-5.504v-21.44c0-2.944-2.56-5.056-5.44-5.056zM27.904 24.576c-0.64 0-1.152-0.512-1.152-1.152s0.512-1.152 1.152-1.152c0.64 0 1.152 0.512 1.152 1.152s-0.512 1.152-1.152 1.152zM27.904 20.608c-0.64 0-1.152-0.512-1.152-1.152s0.512-1.152 1.152-1.152c0.64 0 1.152 0.512 1.152 1.152 0.064 0.64-0.512 1.152-1.152 1.152zM27.904 16.768c-0.64 0-1.152-0.512-1.152-1.152s0.512-1.152 1.152-1.152c0.64 0 1.152 0.512 1.152 1.152 0.064 0.64-0.512 1.152-1.152 1.152zM27.904 12.928c-0.64 0-1.152-0.512-1.152-1.152s0.512-1.152 1.152-1.152c0.64 0 1.152 0.512 1.152 1.152 0.064 0.64-0.512 1.152-1.152 1.152zM27.904 9.28c-0.64 0-1.152-0.512-1.152-1.152s0.512-1.152 1.152-1.152c0.64 0 1.152 0.512 1.152 1.152 0.064 0.64-0.512 1.152-1.152 1.152z"></path>
<path fill="#fff" class="path2 fill-color9" d="M25.152 18.56l-0.064-0.128-0.064 0.128c-1.728-0.96-3.2-1.92-4.48-3.2h3.84l0.064-0.192c0.256-0.192 0.448-0.512 0.448-0.768s-0.128-0.256-0.448-0.448l-0.128 0.128h-9.28c0.256-0.64 0.512-1.28 0.768-1.92h6.592l0.064-0.256c0.256-0.192 0.448-0.512 0.448-0.768s-0.128-0.256-0.448-0.448l-0.064 0.192h-3.712v-0.32c0.832-0.64 1.92-1.6 2.688-2.624l0.384-0.256v-0.128c0-0.704-0.64-1.088-1.408-0.896h-0.256l-0.128 0.064c-0.64 0.96-1.408 1.664-2.176 2.24l-0.128 0.128c-0.064 0.128-0.32 0.896-0.064 1.216 0.064 0.128 0.192-0.064 0.32 0.576h-1.792c0.128-1.28 0.576-2.816 0.576-4.352v-0.128l-0.32-0.128c-0.256-0.192-0.576-0.32-0.832-0.32-0.192 0 0 0.128-0.192 0.448v0 0.128c0 1.344-0.704 3.072-0.832 4.352h-1.344c0-0.64 0.064-0.384 0.064-0.384 0.128-0.192 0.192-0.64 0.064-1.088v-0.128l-0.064-0.064c-0.832-0.832-1.6-1.408-2.304-1.92l-0.384-0.256h-0.128c-0.32 0-0.32 0.256-0.512 0.448s-0.192 0.448-0.128 0.768v0.128l0.128 0.384c0.768 0.576 1.472 1.472 2.112 2.112h-2.944c-0.256 0.064-0.384 0.064-0.384 0.32s0.128 0.576 0.32 0.768l0.064 0.192h5.056c-0.256 0.64-0.576 1.28-0.896 1.92h-5.76l-0.064-0.192c-0.256 0.192-0.448 0.32-0.448 0.576s0.128 0.576 0.448 0.768l0.064 0.128h4.608c-1.28 1.28-3.008 2.24-5.248 3.136l-0.064-0.064h-0.064c-0.128 0.128-0.448 0.512-0.256 0.896 0.128 0.256 0.384 0.384 0.768 0.512h0.064l0.064-0.064c1.408-0.64 2.752-1.344 3.904-2.112 0.064 0.192 0.192 0.512 0.32 0.512l0.064 0.256h2.56c-0.576 2.56-2.56 4.16-5.952 4.864l-0.064-0.128h-0.064c-0.128 0.128-0.512 0.384-0.448 0.832 0.064 0.384 0.576 0.576 0.704 0.576h0.064l0.064 0.192c4.224-0.704 6.656-2.56 7.296-6.4h3.456c0.192 0 0.384-0.192 0.512-0.064s0.128 0.256 0.064 0.448v0 0c0.064 0.384 0.064 1.344-0.32 3.648-0.128 0.576-0.384 0.704-0.64 0.768-0.832 0.192-1.664 0-2.624-0.576l-0.128-0.064h-0.128c-0.384 0.064-0.704 0.256-0.832 0.512s-0.064 0.576 0.128 0.896l0.128 0.128c0.96 0.384 1.92 0.64 2.816 0.64 0.448 0 0.896-0.064 1.344-0.192 0.704-0.256 1.152-0.832 1.408-1.728 0.32-1.728 0.384-3.2 0.32-4.352 0-0.256 0-0.512 0-0.704 0.896 0.64 1.856 1.344 2.88 1.92l0.128 0.192h0.064c0.32 0 0.576-0.128 0.768-0.384 0.128-0.192 0.128-0.512 0-0.896zM19.584 16.64h-6.784c0.448 0 0.96-0.64 1.408-1.28h4.096c0.512 0.64 1.024 0.896 1.536 1.408-0.128 0-0.192-0.128-0.256-0.128z"></path>
</symbol>
<symbol id="DISCOUNT" viewBox="0 0 32 32">
<title>DISCOUNT</title>
<path fill="#54c0ef" class="path1 fill-color5" d="M26.688 1.92c1.856 0 3.392 1.536 3.392 3.392v21.44c0 1.856-1.536 3.392-3.392 3.392h-21.376c-1.856 0-3.392-1.536-3.392-3.392v-21.44c0-1.856 1.536-3.392 3.392-3.392h21.376zM26.688 0h-21.376c-2.944 0-5.312 2.368-5.312 5.312v21.44c0 2.944 2.368 5.248 5.312 5.248h21.376c2.944 0 5.312-2.368 5.312-5.248v-21.44c0-2.944-2.368-5.312-5.312-5.312v0z"></path>
<path fill="#54c0ef" class="path2 fill-color5" d="M14.464 16l0.064-0.064c0.128-0.384 0.128-0.512 0-0.768-0.192-0.192-0.448-0.192-0.768-0.192h0.128v-0.064c-0.64 0.32-1.28 0.512-1.92 0.832v-3.968h2.24c0.256-0.192 0.448-0.448 0.448-0.704s-0.128-0.384-0.448-0.64h-2.24v-3.52l-0.128-0.064c-0.448-0.576-1.152-0.576-1.536 0l-0.256 0.128v3.52h-2.624c-0.256 0.192-0.448 0.448-0.448 0.704s0.128 0.384 0.448 0.64h2.624v4.672c-0.64 0.448-1.856 0.832-2.816 1.088l-0.064 0.064c-0.128 0.128-0.512 0.448-0.448 0.832s0.576 0.576 0.704 0.64h0.128c0.704-0.192 1.6-0.448 2.624-0.896v4.352c0 0.128 0 0.256-0.064 0.256-0.064 0.064-0.128 0.064-0.256 0.064-0.384 0-0.96-0.192-1.792-0.512h-0.128c-0.384 0-0.704 0.128-0.832 0.384s-0.128 0.576 0.064 1.024l0.064 0.128 0.128 0.064c1.024 0.384 1.856 0.576 2.56 0.576 0.576 0 1.152-0.192 1.472-0.512s0.512-0.832 0.512-1.408v-5.056c0.704-0.576 1.856-1.088 2.56-1.6v0z"></path>
<path fill="#54c0ef" class="path3 fill-color5" d="M24.896 12.992l-0.064 0.064h-8.384v-3.264c0-0.192 0-0.448 0.512-0.448 2.304-0.128 4.416-0.384 6.336-0.896h0.064l0.064-0.064c0.256-0.256 0.384-0.576 0.32-0.832s-0.256-0.448-0.576-0.576l-0.128-0.064h-0.128c-1.984 0.512-4.224 0.768-6.4 0.896-1.536 0.128-1.984 1.088-1.984 1.792v4.48c0.64 4.032-0.64 7.232-2.368 9.536v0.128c-0.064 0.384 0 0.64 0.128 0.832 0.128 0.128 0.448 0.32 1.024 0.128l0.128-0.064 0.064-0.064c1.856-2.56 2.816-5.888 2.752-10.368h4.032v10.112l-0.064 0.064c0.192 0.32 0.384 0.512 0.64 0.512s0.448-0.192 0.704-0.512v-10.048h3.264l0.064-0.064c0.256-0.192 0.448-0.384 0.448-0.64s-0.192-0.448-0.448-0.64z"></path>
</symbol>
<symbol id="EXCHANGE" viewBox="0 0 32 32">
<title>EXCHANGE</title>
<path fill="#ee5a49" class="path1 fill-color1" d="M26.816 0h-21.44c-2.944 0-5.312 2.368-5.312 5.248v21.44c0 2.944 2.368 5.248 5.312 5.248h21.44c2.944 0 5.312-2.368 5.312-5.248v-21.44c-0.064-2.88-2.432-5.248-5.312-5.248v0z"></path>
<path fill="#fff" class="path2 fill-color9" d="M19.84 18.816c-0.192 0.064-0.256 0.192-0.192 0.32s0.192 0.192 0.384 0.128l4.224-1.408c0.192-0.064 0.256-0.192 0.192-0.32s-0.192-0.192-0.384-0.128l-4.224 1.408z"></path>
<path fill="#fff" class="path3 fill-color10" d="M23.488 17.152c-0.064-0.896 0.256-2.24 0.256-2.24s-3.52-0.064-4.032 0.704c-0.192 0.32 0.768 0.896 0.576 1.216s-1.536 0.512-1.536 0.512 0.704 0.512 1.152 1.088l3.584-1.28z"></path>
<path fill="#fff" class="path4 fill-color10" d="M25.024 23.168l-0.64 2.176-1.792-1.344-0.704 0.256 1.216 0.832-0.576 0.256 0.128 0.32 0.832-0.256 0.64 0.384-1.088 0.384 0.064 0.384 1.216-0.448 0.384 1.28 0.64-0.256-0.384-1.216 1.216-0.384-0.128-0.384-1.152 0.384 0.256-0.704 0.832-0.256-0.128-0.384-0.576 0.192 0.448-1.408z"></path>
<path fill="#fff" class="path5 fill-color10" d="M24.448 18.112c-0.064 0-0.064 0.064-0.128 0.064l-4.16 1.408c-0.064 0-0.128 0.064-0.192 0.064-2.176 3.2-2.624 7.040-1.984 9.024 0.832 2.56 4.864 3.52 8.384 2.368s6.080-4.352 5.248-6.912c-0.768-2.048-3.392-4.544-7.168-6.016zM25.344 28.096c-1.856 0.64-3.776-0.064-4.288-1.536s0.576-3.2 2.432-3.84c1.856-0.64 3.776 0.064 4.288 1.536s-0.576 3.264-2.432 3.84z"></path>
<path fill="#fff" class="path6 fill-color9" d="M24.768 23.616c-2.048-0.896-3.84-2.496-5.248-4.416h5.376l0.064-0.128c0.256-0.192 0.448-0.448 0.448-0.704s-0.128-0.64-0.448-0.832l-0.064-0.256h-0.96v-3.712c0.128-0.704 0-1.152-0.32-1.536s-0.896-0.512-1.664-0.512h-1.472c0.576-0.64 1.024-1.408 1.28-1.92 0.192-0.512 0.192-0.896-0.064-1.216-0.32-0.448-0.96-0.64-2.048-0.64h-2.624l0.128-0.256-0.064-0.128c-0.192-0.512-0.512-0.64-0.704-0.64-0.256 0-0.448 0.128-0.704 0.384l-0.064 0.064c-0.576 1.28-1.472 2.56-2.624 3.84l-0.064 0.064v0.064c-0.064 0.192-0.064 0.32 0 0.448-0.064-0.064-0.128 0-0.256-0.064h-1.792v-4.288c-0.448-0.704-0.896-0.704-1.344 0l0.064 0.064v4.224h-2.048l-0.064-0.064c-0.256 0.192-0.448 0.384-0.448 0.64s0.128 0.448 0.448 0.704l0.064 0.064h2.048v3.968l-2.368 1.28-0.064 0.064c-0.064 0.128-0.32 0.448-0.128 0.768 0.192 0.384 0.64 0.256 0.832 0.256h0.064l1.664-0.64v4.736c0 0.064-0.064 0.128-0.32 0.128s-0.704-0.064-1.6-0.448l-0.128-0.064h-0.128c-0.32 0.064-0.576 0.192-0.704 0.448s-0.064 0.576 0.128 0.896l0.064 0.128 0.128 0.064c0.896 0.256 1.536 0.448 2.112 0.448 1.344 0 1.6-0.832 1.6-1.344v-5.824l1.728-1.088 0.128-0.128c0.192-0.32 0.256-0.64 0.128-0.832-0.064-0.32-0.576-0.32-0.704-0.32h-0.128l-1.024 0.576v-3.136h1.728l0.064-0.064c0.256-0.192 0.448-0.448 0.448-0.704 0-0.064 0-0.128 0-0.128 0.128 0.128 0.384 0.256 0.832 0.128h0.064c-0.384 0.384-0.512 0.896-0.512 1.664v3.584h-1.344l-0.064 0.192c-0.256 0.192-0.448 0.512-0.448 0.768s0.128 0.576 0.448 0.768l0.064 0.128h4.864c-0.832 1.92-2.624 3.392-5.184 4.608h-0.064l-0.064 0.064c-0.192 0.32-0.256 0.64-0.128 0.896 0.192 0.384 0.704 0.384 0.832 0.384h0.128c2.752-1.216 4.672-2.944 5.76-5.056 1.856 2.56 3.904 4.288 6.144 5.056h0.128c0.384-0.064 0.64-0.256 0.704-0.512 0.128-0.384-0.192-0.704-0.384-0.96h-0.128zM14.72 17.28v-3.584c0-0.448 0.32-0.256 0.768-0.256h2.368l-0.384 3.84h-2.752zM19.392 13.44h2.368c0.256 0 0.448-0.128 0.576 0 0.064 0.064 0.064 0 0.064 0.256v3.584h-3.456l0.448-3.84zM19.648 8.96c0.32 0 0.448 0.128 0.512 0.192 0 0 0 0.064-0.064 0.128-0.448 0.768-1.024 1.664-1.664 2.304h-3.136c-0.512 0-0.896 0-1.216 0.192 0.832-0.832 1.536-1.472 2.112-2.752h3.456z"></path>
</symbol>
<symbol id="MEMBERUPGRADE" viewBox="0 0 32 32">
<title>MEMBERUPGRADE</title>
<path fill="#ee5a49" class="path1 fill-color1" d="M26.688 0h-21.376c-2.944 0-5.312 2.368-5.312 5.248v21.44c0 2.944 2.368 5.248 5.312 5.248h21.44c2.944 0 5.312-2.368 5.312-5.248v-21.44c-0.064-2.88-2.432-5.248-5.376-5.248v0z"></path>
<path fill="#fefefe" class="path2 fill-color10" d="M18.88 22.016v0.384l-0.448 6.144-3.328-5.12v-0.448l-1.984 0.448 0.192 0.576v0.128l4.416 6.976 0.384 0.576 0.64-0.192 0.704-0.128 0.64-0.192 0.064-0.704 0.64-8.128-0.192-0.768z"></path>
<path fill="#fefefe" class="path3 fill-color10" d="M21.184 21.376l2.304 8.896 1.856-0.448-2.304-8.896z"></path>
<path fill="#fefefe" class="path4 fill-color10" d="M31.808 21.696c-0.32-1.216-1.536-2.112-2.944-2.112-0.256 0-0.576 0.064-0.832 0.128l-3.712 0.96 2.176 8.96 1.856-0.512-0.832-3.328 1.856-0.512c1.728-0.448 2.816-2.048 2.432-3.584zM28.992 23.488l-1.856 0.512-0.576-2.112 1.856-0.512c0.64-0.128 1.408 0.192 1.536 0.704 0.192 0.576-0.256 1.216-0.96 1.408z"></path>
<path fill="#fff" class="path5 fill-color9" d="M25.28 13.376v-0.064l-0.064-0.064c-2.88-1.664-5.568-3.712-8.064-6.144-0.704-0.576-1.472-0.576-2.112 0-2.496 2.56-5.184 4.608-8.192 6.080l-0.064 0.064-0.064 0.128c-0.064 0.128-0.32 0.512-0.128 0.896s0.704 0.384 0.832 0.384h0.128c2.496-1.088 5.248-3.072 8.256-5.952 0.064-0.064 0.128-0.192 0.256-0.192 0.064 0 0.192 0.064 0.32 0.192 2.88 2.688 5.632 4.736 8 5.952l0.064 0.064h0.064c0.32 0 0.576-0.128 0.768-0.32 0.128-0.32 0.128-0.64 0-1.024z"></path>
<path fill="#fff" class="path6 fill-color9" d="M23.808 16.512l-0.128 0.064h-15.36l-0.064-0.064c-0.256 0.192-0.448 0.384-0.448 0.64s0.128 0.448 0.448 0.64h4.544c-0.896 1.28-1.856 3.072-2.88 4.608-0.32 0.576-0.384 0.96-0.192 1.28s0.64 0.512 1.344 0.512v0c2.56 0 6.080-0.256 10.432-0.576 0.064 0.256 0.128 0.512 0.192 0.832l0.064 0.128c0.256 0.32 0.512 0.448 0.704 0.448 0.32 0 0.576-0.256 0.704-0.704v-0.192c-0.512-1.728-1.216-3.456-2.112-5.184l-0.064-0.128-0.128-0.064c-0.192-0.064-0.192-0.128-0.32-0.128-0.192 0-0.576 0.064-0.576 0.832v0.32l-0.128 0.064c0.32 0.64 0.64 1.472 1.088 2.56-3.712 0.192-6.848 0.32-9.408 0.448-0.064 0-0.064 0-0.128 0 0.896-1.344 1.856-3.008 3.008-4.928h9.088l0.064-0.064c0.32-0.192 0.512-0.384 0.512-0.64s0.128-0.512-0.256-0.704z"></path>
<path fill="#fff" class="path7 fill-color9" d="M11.264 14.016h9.856c0.32-0.192 0.512-0.448 0.512-0.704s-0.192-0.448-0.512-0.64l-0.064 0.064h-9.856c-0.384 0.192-0.512 0.448-0.512 0.704s0.192 0.448 0.512 0.64l0.064-0.064z"></path>
</symbol>
<symbol id="POINT" viewBox="0 0 32 32">
<title>POINT</title>
<path fill="#af94f8" class="path1 fill-color8" d="M26.752 1.92c1.856 0 3.328 1.536 3.328 3.392v21.44c0 1.856-1.536 3.392-3.392 3.392h-21.376c-1.856 0-3.392-1.536-3.392-3.392v-21.44c0-1.856 1.536-3.392 3.392-3.392h21.44zM26.752 0h-21.44c-2.944 0-5.312 2.368-5.312 5.312v21.44c0 2.944 2.368 5.248 5.312 5.248h21.44c2.944 0 5.312-2.368 5.312-5.248v-21.44c-0.064-2.944-2.432-5.312-5.312-5.312v0z"></path>
<path fill="#af94f8" class="path2 fill-color8" d="M16.576 16.832h5.632c0.128 0 0.192 0 0.256 0 0.576 0 1.024-0.192 1.28-0.512 0.32-0.32 0.448-0.832 0.384-1.472v-5.376c0.064-0.576-0.064-1.152-0.384-1.536-0.384-0.384-0.96-0.704-1.728-0.704h-5.568c-1.28 0-1.728 0.96-1.728 2.304v5.248c0 2.048 1.28 2.112 1.856 2.048zM22.592 14.912c0 0.128 0 0.256 0 0.32-0.064 0.064-0.128 0.256-0.256 0.256-0.064 0-0.128 0.128-0.256 0.128h-5.44v-0.128c-0.064 0-0.128-0.064-0.192-0.064-0.192 0-0.448-0.064-0.448-0.704v-5.12c0-0.448 0.192-0.384 0.64-0.384h5.248c0.32 0 0.576 0 0.704 0.064 0.064 0.064 0.064 0.128 0.064 0.384l-0.064 5.248z"></path>
<path fill="#af94f8" class="path3 fill-color8" d="M24.896 23.488c-0.576-1.6-1.536-3.648-2.688-6.208l-0.128-0.128c-0.256-0.128-0.448-0.192-0.64-0.192s-0.576 0.064-0.704 0.704v0.128l0.064 0.128c1.088 2.304 1.984 4.352 2.688 6.144l0.064 0.128 0.064 0.064c0.256 0.128 0.448 0.192 0.64 0.192s0.576-0.064 0.768-0.704v-0.064l-0.128-0.192z"></path>
<path fill="#af94f8" class="path4 fill-color8" d="M16.96 17.024c-0.192 0-0.448 0.128-0.704 0.32l-0.064 0.064v0.064c-0.576 1.536-1.728 3.584-3.264 5.952l-0.128 0.064v0.128c0 0.768 0.576 0.832 0.704 0.832s0.32-0.064 0.512-0.128l0.128-0.128c1.28-1.792 2.496-3.904 3.456-6.208l0.064-0.064v-0.064c-0.128-0.704-0.448-0.832-0.704-0.832z"></path>
<path fill="#af94f8" class="path5 fill-color8" d="M14.080 17.152v-0.064l-0.128-0.064c-0.576-1.088-1.152-2.368-2.432-3.84v-0.128h1.92l0.064-0.128c0.256-0.192 0.448-0.448 0.448-0.704s-0.128-0.64-0.448-0.832l-0.064-0.256h-1.92v-2.176c0.64-0.192 1.536-0.448 2.112-0.704l0.128-0.128c0.064-0.128 0.32-0.576 0.128-0.896-0.128-0.192-0.384-0.32-0.704-0.32h-0.128c-1.472 0.512-3.2 0.832-5.184 1.024l-0.128 0.064c-0.32 0.192-0.512 0.448-0.512 0.704s0.192 0.384 0.512 0.576l0.064-0.128h0.064c0.32 0 1.024 0.192 2.304 0.064v1.92h-2.752l-0.064 0.192c-0.256 0.192-0.448 0.512-0.448 0.768s0.128 0.576 0.448 0.768l0.064 0.128h2.368c-0.704 1.92-1.856 3.968-3.392 6.208v0.128c-0.064 0.32 0 0.576 0.128 0.768 0.128 0.128 0.512 0.32 1.088 0h0.064l0.192-0.064c0.896-1.216 1.728-2.368 2.368-3.584v7.68l-0.064 0.064c0.192 0.256 0.384 0.448 0.64 0.448s0.448-0.128 0.64-0.448v-8.192c0 0.512 0.64 1.088 1.088 1.792l0.128 0.128c0.192 0.128 0.512 0.192 0.64 0.192 0.256-0.064 0.768-0.128 0.768-0.96z"></path>
</symbol>
<symbol id="POINTCONSUME" viewBox="0 0 32 32">
<title>POINTCONSUME</title>
<path fill="#f47a62" class="path1 fill-color6" d="M26.688 1.92c1.856 0 3.392 1.536 3.392 3.392v21.44c0 1.856-1.536 3.392-3.392 3.392h-21.376c-1.856 0-3.392-1.536-3.392-3.392v-21.44c0-1.856 1.536-3.392 3.392-3.392h21.376zM26.688 0h-21.376c-2.944 0-5.312 2.368-5.312 5.312v21.44c0 2.944 2.368 5.248 5.312 5.248h21.44c2.944 0 5.312-2.368 5.312-5.248v-21.44c-0.064-2.944-2.432-5.312-5.376-5.312v0z"></path>
<path fill="#f47a62" class="path2 fill-color6" d="M25.024 19.2v-0.064l-0.064-0.064c-0.448-0.704-1.024-0.704-1.472 0l-0.064 0.064v0.064c0.128 3.52-0.32 3.968-0.32 4.032-0.96-0.384-2.304-2.496-2.88-8.256h4.096l0.064-0.128c0.32-0.192 0.512-0.512 0.512-0.768s-0.192-0.64-0.512-0.832l-0.064-0.192h-4.16c-0.064-1.28-0.064-2.688 0-3.776 1.216-0.128 2.176-0.192 2.944-0.384h0.064l0.064-0.064c0.256-0.256 0.384-0.576 0.32-0.832s-0.256-0.448-0.576-0.576l-0.064-0.064h-0.064c-2.368 0.384-4.544 0.64-6.464 0.64-0.384 0-0.768 0-1.152 0-1.152-0.064-1.792 0.576-1.792 1.792v1.28c-0.64-0.128-0.256-0.32-0.448-0.448l-0.064-0.128h-2.048v-3.2l0.064-0.064c-0.448-0.704-0.96-0.704-1.344 0v3.264h-2.24l-0.064 0.128c-0.256 0.192-0.448 0.512-0.448 0.768s0.128 0.64 0.448 0.832l0.064 0.192h2.24v4.352c-1.28 0.384-1.664 0.704-2.368 0.96l-0.128 0.064-0.064 0.064c-0.192 0.384-0.256 0.64-0.192 0.896 0.128 0.256 0.32 0.384 0.64 0.448h0.128c0.512-0.192 1.088-0.384 1.856-0.704v4.352c0 0.192 0 0.32-0.064 0.384 0 0.064-0.128 0.064-0.192 0.064-0.256 0-0.704-0.128-1.216-0.32l-0.064-0.064h-0.064c-0.384 0.064-0.64 0.256-0.768 0.512-0.128 0.384 0.192 0.768 0.256 0.896l0.064 0.064h0.064c0.768 0.256 1.28 0.384 1.728 0.384 1.088 0 1.6-0.64 1.6-1.728v-5.312c0.64-0.384 1.92-0.768 2.56-1.152v6.72c0 0.512 0.064 0.832 0.192 1.152 0.256 0.448 0.768 0.64 1.408 0.384 1.024-0.448 2.048-1.344 3.008-2.624 0.64 0.896 1.216 1.792 1.728 2.688l0.128 0.128c0.192 0.128 0.384 0.192 0.576 0.192s0.64-0.064 0.64-0.896v-0.128c-0.384-1.024-1.088-2.048-1.984-3.072l-0.064-0.064c-0.192-0.128-0.384-0.192-0.576-0.192-0.128 0-0.448 0.064-0.576 0.384-0.192-0.128-0.384-0.192-0.512-0.192s-0.256 0-0.448 0.128h-0.064l-0.192-0.064c-1.152 1.472-1.92 1.856-1.92 1.92v-8.064h3.968c0.512 5.76 1.92 9.408 4.288 9.92 0.512 0.064 0.896-0.128 1.216-0.448 0.704-0.704 0.96-2.496 0.832-5.248zM13.44 15.488c-0.64-0.128-0.384 0.128-0.576 0.128h-0.064l-1.92 0.576v-3.776h2.048l0.064-0.128c0.192-0.128-0.192-0.32 0.448-0.448 0 0 0 3.648 0 3.648zM20.48 24.768v0 0 0zM18.624 13.056h-3.904v-3.008c0-0.576 0.384-0.576 0.512-0.576 0.064 0 0.192 0 0.256 0 1.152 0 2.24-0.128 3.136-0.192-0.064 1.088-0.064 2.496 0 3.776z"></path>
</symbol>
<symbol id="SPECIAL_PRICE" viewBox="0 0 32 32">
<title>SPECIAL_PRICE</title>
<path fill="#73e7f4" class="path1 fill-color7" d="M26.688 1.92c1.856 0 3.392 1.536 3.392 3.392v21.44c0 1.856-1.536 3.392-3.392 3.392h-21.376c-1.856 0-3.392-1.536-3.392-3.392v-21.44c0-1.856 1.536-3.392 3.392-3.392h21.376zM26.688 0h-21.376c-2.944 0-5.312 2.368-5.312 5.312v21.44c0 2.944 2.368 5.248 5.312 5.248h21.44c2.944 0 5.312-2.368 5.312-5.248v-21.44c-0.064-2.944-2.432-5.312-5.376-5.312v0z"></path>
<path fill="#73e7f4" class="path2 fill-color7" d="M24.896 15.744l-0.064-0.128h-2.432v-1.92h2.432l0.064 0.064c0.256-0.192 0.448-0.384 0.448-0.64s-0.128-0.448-0.448-0.704h-5.056v-1.92h3.904l0.064-0.128c0.256-0.192 0.448-0.448 0.448-0.704s-0.128-0.64-0.448-0.832l-0.064-0.256h-3.904v-1.28l-0.128-0.064c-0.448-0.576-1.152-0.576-1.6 0l-0.192 0.064v1.28h-3.392l-0.064 0.256c-0.32 0.32-0.448 0.64-0.384 0.896 0 0.192 0.128 0.448 0.448 0.64l0.064 0.128h3.328v1.92h-3.968l-0.064 0.064c-0.256 0.192-0.448 0.448-0.448 0.704s0.128 0.32 0.448 0.576l0.064-0.064h7.168v1.92h-7.168v0.064c0-0.064-0.064-0.064-0.064-0.064-0.128-0.192-0.448-0.32-1.088-0.128l-0.128 0.064v0.064c-0.128 0.192-0.512 0.448-0.512 0.64v-3.84h1.408l0.064-0.192c0.256-0.192 0.448-0.512 0.448-0.768s-0.128-0.576-0.448-0.832l-0.064-0.128h-1.408v-3.2l-0.128-0.064c-0.448-0.576-1.152-0.576-1.536 0l-0.256 0.064v3.2h-0.64c0.064-0.64 0.192-1.664 0.256-2.88v-0.064l-0.064-0.064c-0.448-0.576-0.96-0.576-1.408 0l-0.064 0.064v0.128c-0.128 2.944-0.576 5.376-1.472 7.232l-0.064 0.064 0.064 0.128c0.256 0.832 0.896 0.96 1.472 0.256l0.064 0.064c0.448-1.024 0.832-2.368 1.024-3.008h0.832v5.184c-0.64 0.832-2.112 1.6-3.328 2.24l-0.064 0.064v0.128c-0.128 0.384-0.128 0.768 0 0.96s0.384 0.384 0.768 0.384h0.064v-0.128c0.832-0.448 1.92-1.088 2.56-1.728v5.056l0.128 0.064c0.448 0.576 1.152 0.576 1.536 0l0.256-0.064v-6.272c0.64-0.384 0.96-0.896 1.472-1.408 0.064 0.128 0.128 0.32 0.256 0.448l0.064 0.192h1.152c-0.064 0-0.128 0-0.128 0.064-0.128 0.192-0.128 0.448 0 0.768v0.064l0.064 0.064c1.152 0.96 2.24 2.112 3.072 3.392l0.064 0.128c0.704 0.128 1.024-0.192 1.024-0.896v-0.128l0.064 0.064c-0.896-1.28-1.856-2.816-3.072-3.456h4.736v5.76c0 0.064 0 0.128-0.064 0.192s-0.192 0.064-0.32 0.064c-0.448 0-1.216-0.256-2.176-0.64l-0.128-0.064-0.128 0.064c-0.256 0.128-0.448 0.32-0.512 0.576s-0.064 0.512 0.064 0.768l0.064 0.128 0.128 0.064c1.152 0.512 2.112 0.768 2.816 0.768 0.64 0 1.152-0.192 1.408-0.512 0.32-0.32 0.32-0.768 0.32-1.28v-5.76h2.432l0.064-0.192c0.256-0.192 0.448-0.576 0.448-0.832s-0.192-0.768-0.448-0.96z"></path>
</symbol>
<symbol id="VIP" viewBox="0 0 32 32">
<title>VIP</title>
<path fill="#ee5a49" class="path1 fill-color1" d="M26.688 0h-21.376c-2.944 0-5.312 2.368-5.312 5.248v21.44c0 2.944 2.368 5.248 5.312 5.248h21.44c2.944 0 5.312-2.368 5.312-5.248v-21.44c-0.064-2.88-2.432-5.248-5.376-5.248v0z"></path>
<path fill="#fefefe" class="path2 fill-color10" d="M18.88 22.016v0.384l-0.448 6.144-3.328-5.12v-0.448l-1.984 0.448 0.192 0.576v0.128l4.416 6.976 0.384 0.576 0.64-0.192 0.704-0.128 0.64-0.192 0.064-0.704 0.64-8.128-0.192-0.768z"></path>
<path fill="#fefefe" class="path3 fill-color10" d="M21.184 21.376l2.304 8.896 1.856-0.448-2.304-8.896z"></path>
<path fill="#fefefe" class="path4 fill-color10" d="M31.808 21.696c-0.32-1.216-1.536-2.112-2.944-2.112-0.256 0-0.576 0.064-0.832 0.128l-3.712 0.96 2.176 8.96 1.856-0.512-0.832-3.328 1.856-0.512c1.728-0.448 2.816-2.048 2.432-3.584zM28.992 23.488l-1.856 0.512-0.576-2.112 1.856-0.512c0.64-0.128 1.408 0.192 1.536 0.704 0.192 0.576-0.256 1.216-0.96 1.408z"></path>
<path fill="#fff" class="path5 fill-color9" d="M25.28 13.376v-0.064l-0.064-0.064c-2.88-1.664-5.568-3.712-8.064-6.144-0.704-0.576-1.472-0.576-2.112 0-2.496 2.56-5.184 4.608-8.192 6.080l-0.064 0.064-0.064 0.128c-0.064 0.128-0.32 0.512-0.128 0.896s0.704 0.384 0.832 0.384h0.128c2.496-1.088 5.248-3.072 8.256-5.952 0.064-0.064 0.128-0.192 0.256-0.192 0.064 0 0.192 0.064 0.32 0.192 2.88 2.688 5.632 4.736 8 5.952l0.064 0.064h0.064c0.32 0 0.576-0.128 0.768-0.32 0.128-0.32 0.128-0.64 0-1.024z"></path>
<path fill="#fff" class="path6 fill-color9" d="M23.808 16.512l-0.128 0.064h-15.36l-0.064-0.064c-0.256 0.192-0.448 0.384-0.448 0.64s0.128 0.448 0.448 0.64h4.544c-0.896 1.28-1.856 3.072-2.88 4.608-0.32 0.576-0.384 0.96-0.192 1.28s0.64 0.512 1.344 0.512v0c2.56 0 6.080-0.256 10.432-0.576 0.064 0.256 0.128 0.512 0.192 0.832l0.064 0.128c0.256 0.32 0.512 0.448 0.704 0.448 0.32 0 0.576-0.256 0.704-0.704v-0.192c-0.512-1.728-1.216-3.456-2.112-5.184l-0.064-0.128-0.128-0.064c-0.192-0.064-0.192-0.128-0.32-0.128-0.192 0-0.576 0.064-0.576 0.832v0.32l-0.128 0.064c0.32 0.64 0.64 1.472 1.088 2.56-3.712 0.192-6.848 0.32-9.408 0.448-0.064 0-0.064 0-0.128 0 0.896-1.344 1.856-3.008 3.008-4.928h9.088l0.064-0.064c0.32-0.192 0.512-0.384 0.512-0.64s0.128-0.512-0.256-0.704z"></path>
<path fill="#fff" class="path7 fill-color9" d="M11.264 14.016h9.856c0.32-0.192 0.512-0.448 0.512-0.704s-0.192-0.448-0.512-0.64l-0.064 0.064h-9.856c-0.384 0.192-0.512 0.448-0.512 0.704s0.192 0.448 0.512 0.64l0.064-0.064z"></path>
</symbol>
<symbol id="CHARGE2" viewBox="0 0 32 32">
<title>CHARGE2</title>
<path fill="#ee5a49" class="path3 fill-color10" d="M20.48 23.296c1.856 0 3.392 1.536 3.392 3.392s-1.536 3.392-3.392 3.392-3.392-1.536-3.392-3.392 1.536-3.392 3.392-3.392zM20.48 21.376c-2.944 0-5.312 2.368-5.312 5.312s2.368 5.312 5.312 5.312c2.944 0 5.312-2.368 5.312-5.312s-2.368-5.312-5.312-5.312v0z"></path>
<path fill="#ee5a49" class="path4 fill-color10" d="M26.816 23.296c1.856 0 3.392 1.536 3.392 3.392s-1.536 3.392-3.392 3.392-3.392-1.536-3.392-3.392 1.536-3.392 3.392-3.392zM26.816 21.376c-2.944 0-5.312 2.368-5.312 5.312s2.368 5.312 5.312 5.312 5.312-2.368 5.312-5.312c-0.064-2.944-2.432-5.312-5.312-5.312v0z"></path>
<path fill="#ee5a49" class="path1 fill-color1" d="M26.752 1.92c1.856 0 3.328 1.536 3.328 3.392v21.44c0 1.856-1.536 3.392-3.392 3.392h-21.376c-1.856-0.064-3.392-1.536-3.392-3.392v-21.44c0-1.856 1.536-3.392 3.392-3.392h21.44zM26.752 0h-21.44c-2.944 0-5.312 2.368-5.312 5.312v21.44c0 2.88 2.368 5.248 5.312 5.248h21.44c2.944 0 5.312-2.368 5.312-5.248v-21.44c-0.064-2.944-2.432-5.312-5.312-5.312v0z"></path>
<path fill="#ee5a49" class="path2 fill-color1" d="M24.896 19.904l-0.064-0.064c-0.448-0.576-0.96-0.576-1.408 0l-0.064 0.064v0.128c0.064 2.112-0.192 2.88-0.448 3.136-0.064 0.064-0.192 0.128-0.32 0.128 0 0-0.064 0-0.128 0h-3.328c-0.064 0-0.128 0-0.192 0-0.128 0-0.384 0-0.384-0.576v-6.784l3.584-0.128c0.256 0.384 0.64 0.896 1.088 1.536l0.064 0.064 0.128 0.064c0.576 0.192 0.896 0 1.024-0.128 0.128-0.192 0.192-0.448 0.128-0.832l-0.064-0.128c-1.408-2.112-3.008-4.16-4.672-5.952l-0.064-0.192h4.544l0.064 0.064c0.32-0.192 0.512-0.384 0.512-0.704s-0.192-0.448-0.512-0.64h-7.424c-0.256-0.64-0.64-1.472-0.96-2.112l-0.128-0.128c-0.192-0.128-0.384-0.192-0.576-0.192-0.256 0-0.64 0.128-0.768 0.896v0.128l0.064 0.128c0.32 0.448 0.512 0.704 0.704 1.344h-7.808c-0.32 0.192-0.512 0.448-0.512 0.704s0.192 0.448 0.512 0.64l0.064-0.064h6.208c-1.6 2.56-3.2 3.904-4.672 4.416-0.32 0.192-0.512 0.512-0.512 0.768s0.192 0.512 0.512 0.768l0.064 0.064 3.392-0.128c0.192 3.904-1.472 6.272-5.056 7.296h-0.128l-0.064 0.064c-0.192 0.256-0.256 0.512-0.192 0.768s0.32 0.448 0.64 0.576l0.128 0.064h0.128c4.224-1.216 6.4-4.16 6.208-8.832l3.072-0.128v7.040c0 0.576 0 1.024 0.32 1.344s0.64 0.576 1.216 0.576c0.064 0 0.128 0.064 0.192 0.064h3.584c0.576 0 1.024-0.192 1.408-0.576 0.704-0.704 0.96-2.176 0.896-4.352v-0.192zM18.56 11.264v0.128l0.064 0.064c0.512 0.512 1.344 1.472 2.432 2.752l-9.024 0.32c1.216-1.088 2.432-2.432 3.584-4.352h3.456c-0.32 0.064-0.512 0.704-0.512 1.088z"></path>
</symbol>
<symbol id="COUPON2" viewBox="0 0 32 32">
<title>COUPON2</title>
<path fill="#ffc943" class="path1 fill-color4" d="M26.688 1.92c1.856 0 3.392 1.536 3.392 3.392v21.504c0 1.856-1.536 3.392-3.392 3.392h-21.376c-1.856 0-3.392-1.536-3.392-3.392v-21.504c0-1.856 1.536-3.392 3.392-3.392h21.376zM26.688 0h-21.376c-2.944 0-5.312 2.368-5.312 5.248v21.504c0 2.944 2.368 5.248 5.312 5.248h21.376c2.944 0 5.312-2.368 5.312-5.248v-21.44c-0.064-2.944-2.432-5.312-5.312-5.312v0z"></path>
<path fill="#ffc943" class="path2 fill-color4" d="M10.496 11.456l0.064 0.064h0.128c0.064 0 0.064 0.064 0.128 0.064 0.192 0 0.64-0.064 0.64-0.96v-0.064l0.064-0.064c-0.704-1.088-1.472-2.304-2.368-3.456v-0.064l-0.064-0.064c-0.128-0.064-0.256-0.128-0.384-0.128-0.32 0-0.64 0.192-0.768 0.96v0.128l0.064 0.128c0.64 0.896 1.472 2.048 2.496 3.456z"></path>
<path fill="#ffc943" class="path3 fill-color4" d="M24.512 23.296l-0.064 0.064h-7.744c-0.896 0-1.728-0.128-2.432-0.384l0.064-0.064c2.048-0.768 3.84-1.92 5.44-3.328 1.088 1.28 1.984 2.304 2.624 3.008l0.064 0.064c0.192 0.128 0.384 0.192 0.576 0.192s0.64-0.064 0.64-0.896v-0.192c-0.576-0.896-1.536-2.048-2.816-3.456 1.344-1.792 2.304-3.648 2.88-5.632 0.128-0.512 0-1.088-0.256-1.408-0.32-0.448-0.96-0.768-1.856-0.768h-7.040v-0.896c0-0.448 0.192-0.896 1.088-0.896 2.88 0.128 5.504 0 7.744-0.32h0.128l0.064-0.064c0.256-0.256 0.384-0.576 0.384-0.832-0.064-0.256-0.256-0.448-0.576-0.576h-0.128c-2.048 0.32-4.672 0.384-7.872 0.32-1.344 0-2.048 0.768-2.048 2.112v2.816c0 3.392-0.576 6.336-1.856 8.576-0.064-0.128-0.192-0.256-0.256-0.448v-5.44c0.064-0.64-0.064-1.024-0.384-1.344-0.32-0.384-0.896-0.448-1.6-0.448h-2.176c-0.32 0.32-0.448 0.576-0.384 0.832 0 0.192 0.128 0.32 0.448 0.512l0.064-0.064h1.856c0.256 0 0.448 0.128 0.512 0.192s0.064 0.256 0.064 0.448v5.12c0.064 0.512-0.32 1.536-2.432 3.328l-0.064 0.064v0.064c-0.128 0.32-0.128 0.512 0 0.704 0.128 0.32 0.384 0.32 0.832 0.32h0.128l0.064 0.064c0.832-0.64 1.6-1.408 2.368-2.368 1.344 1.536 3.328 2.368 5.824 2.368 0.128 0 0.32 0 0.448 0h7.68c0.32-0.192 0.512-0.384 0.512-0.64s-0.192-0.448-0.512-0.704zM13.44 22.592v0c-0.32-0.128-0.64-0.256-0.96-0.512 1.6-2.56 2.368-5.76 2.304-9.6h6.72c0.448 0 0.512 0.064 0.512 0.064s0 0.064-0.064 0.192c-0.448 1.536-1.216 3.008-2.24 4.416-0.896-1.024-2.048-2.304-3.52-3.904l-0.128-0.064c-0.192-0.064-0.32-0.128-0.448-0.128-0.192 0-0.64 0.128-0.768 0.768v0.128l0.128 0.128c1.344 1.6 2.56 3.008 3.712 4.288-1.152 1.152-2.816 2.24-4.928 3.136l-0.128 0.128c-0.128 0.192-0.384 0.64-0.192 0.96z"></path>
</symbol>
<symbol id="COUPONFREE2" viewBox="0 0 32 32">
<title>COUPONFREE2</title>
<path fill="#ee5a49" class="path1 fill-color1" d="M25.152 18.944l-0.064-0.128-0.128-0.128c-1.728-0.96-3.2-2.112-4.48-3.392h3.904c0.256-0.192 0.448-0.384 0.448-0.64s-0.128-0.384-0.448-0.64h-9.344c0.256-0.64 0.512-1.28 0.768-1.92h6.592l0.064-0.064c0.256-0.192 0.448-0.448 0.448-0.704s-0.128-0.704-0.448-0.896l-0.064-0.192h-3.712v0.192c0.832-0.64 1.6-1.344 2.368-2.368v0-0.128c0-0.704-0.32-1.088-1.088-0.896h-0.064l-0.064 0.064c-0.704 0.896-1.408 1.6-2.176 2.176l-0.064 0.064v0.064c-0.064 0.128-0.32 0.384-0.064 0.704 0.064 0.128 0.192 0.064 0.32 0.064h-1.792c0.128-0.64-0.064-1.792-0.064-3.328v-0.32c-0.256-0.192-0.384-0.32-0.64-0.32-0.192 0-0.448 0.064-0.64 0.384v0.384c0 1.344 0 2.688-0.192 3.328h-1.344c0 0 0.064 0.192 0.064 0.128 0.128-0.192 0.192-0.384 0.064-0.832v0h-0.064c-0.832-0.832-1.6-1.408-2.304-1.856l-0.064-0.064h-0.128c-0.32 0-0.576 0-0.768 0.192s-0.192 0.448-0.128 0.768v0.128l0.128-0.128c0.768 0.576 1.472 0.96 2.112 1.6h-2.944l-0.064 0.32c-0.192 0.192-0.32 0.576-0.32 0.768s0.128 0.512 0.32 0.704l0.064 0.128h5.056c-0.256 0.64-0.576 1.28-0.896 1.92h-5.824c-0.256 0.192-0.448 0.448-0.448 0.704s0.128 0.384 0.448 0.64h4.672c-1.28 1.28-3.008 2.432-5.248 3.328l-0.128 0.128c-0.128 0.128-0.448 0.512-0.256 0.96 0.128 0.256 0.384 0.448 0.768 0.512h0.064l0.064-0.064c1.408-0.64 2.752-1.344 3.904-2.112 0.064 0.192 0.192 0.256 0.32 0.32l0.064 0.064h2.56c-0.576 2.56-2.56 4.416-5.952 5.056h-0.064l-0.064 0.064c-0.128 0.128-0.512 0.384-0.448 0.832 0.064 0.384 0.576 0.576 0.704 0.64h0.128c4.224-0.704 6.656-3.392 7.232-6.592h3.456c0.192 0 0.384 0 0.512 0.128s0.128 0.32 0.064 0.512v0.128c0.064 0.576 0 1.792-0.32 3.648-0.128 0.576-0.384 0.768-0.64 0.768-0.832 0.192-1.664 0-2.624-0.576l-0.128-0.064h-0.128c-0.384 0.064-0.704 0.256-0.832 0.512s-0.064 0.576 0.128 0.896l0.128 0.128c0.96 0.384 1.92 0.64 2.816 0.64 0.448 0 0.896-0.064 1.344-0.192 0.704-0.256 1.152-0.832 1.408-1.728 0.32-1.728 0.384-3.2 0.32-4.352 0-0.256 0-0.512 0-0.704 0.896 0.64 1.856 1.152 2.88 1.728l0.128-0.192h0.064c0.32 0 0.576 0.064 0.768-0.128 0.128-0.256 0.128-0.384 0-0.768zM19.584 16.64h-6.784c0.448 0 0.96-0.64 1.408-1.28h4.096c0.512 0.64 1.024 0.896 1.536 1.408-0.128 0-0.192-0.128-0.256-0.128z"></path>
<path fill="#ee5a49" class="path2 fill-color1" d="M27.904 9.728v0c-0.64 0-1.152-0.512-1.152-1.152v0c0-0.64 0.512-1.152 1.152-1.152v0c0.64 0 1.152 0.512 1.152 1.152v0c0.064 0.576-0.512 1.152-1.152 1.152z"></path>
<path fill="#ee5a49" class="path3 fill-color1" d="M27.904 13.312v0c-0.64 0-1.152-0.512-1.152-1.152v0c0-0.64 0.512-1.152 1.152-1.152v0c0.64 0 1.152 0.512 1.152 1.152v0c0.064 0.64-0.512 1.152-1.152 1.152z"></path>
<path fill="#ee5a49" class="path4 fill-color1" d="M27.904 17.152v0c-0.64 0-1.152-0.512-1.152-1.152v0c0-0.64 0.512-1.152 1.152-1.152v0c0.64 0 1.152 0.512 1.152 1.152v0c0.064 0.64-0.512 1.152-1.152 1.152z"></path>
<path fill="#ee5a49" class="path5 fill-color1" d="M27.904 24.896v0c-0.64 0-1.152-0.512-1.152-1.152v0c0-0.64 0.512-1.152 1.152-1.152v0c0.64 0 1.152 0.512 1.152 1.152v0c0.064 0.576-0.512 1.152-1.152 1.152z"></path>
<path fill="#ee5a49" class="path6 fill-color1" d="M26.56 0h-21.44c-2.88 0-5.12 2.496-5.12 5.44v6.336c1.92 0.448 3.584 2.304 3.584 4.48s-1.664 4.032-3.584 4.48v6.144c0 2.944 2.24 5.12 5.12 5.12h21.44c2.944 0 5.44-2.24 5.44-5.12v-21.44c0-2.944-2.496-5.44-5.44-5.44zM30.080 26.88c0 1.856-1.664 3.2-3.52 3.2h-21.44c-1.856 0-3.2-1.344-3.2-3.2v-5.184c1.92-1.024 3.456-3.072 3.456-5.504s-1.536-4.544-3.456-5.568v-5.184c0-1.856 1.344-3.52 3.2-3.52h21.44c1.856 0 3.52 1.664 3.52 3.52v21.44z"></path>
<path fill="#ee5a49" class="path7 fill-color1" d="M27.904 20.992v0c-0.64 0-1.152-0.512-1.152-1.152v0c0-0.64 0.512-1.152 1.152-1.152v0c0.64 0 1.152 0.512 1.152 1.152v0c0.064 0.64-0.512 1.152-1.152 1.152z"></path>
</symbol>
<symbol id="DISCOUNT2" viewBox="0 0 32 32">
<title>DISCOUNT2</title>
<path fill="#54c0ef" class="path1 fill-color5" d="M26.688 1.92c1.856 0 3.392 1.536 3.392 3.392v21.44c0 1.856-1.536 3.392-3.392 3.392h-21.376c-1.856 0-3.392-1.536-3.392-3.392v-21.44c0-1.856 1.536-3.392 3.392-3.392h21.376zM26.688 0h-21.376c-2.944 0-5.312 2.368-5.312 5.312v21.44c0 2.944 2.368 5.248 5.312 5.248h21.376c2.944 0 5.312-2.368 5.312-5.248v-21.44c0-2.944-2.368-5.312-5.312-5.312v0z"></path>
<path fill="#54c0ef" class="path2 fill-color5" d="M14.464 16l0.064-0.064c0.128-0.384 0.128-0.512 0-0.768-0.192-0.192-0.448-0.192-0.768-0.192h0.128v-0.064c-0.64 0.32-1.28 0.512-1.92 0.832v-3.968h2.24c0.256-0.192 0.448-0.448 0.448-0.704s-0.128-0.384-0.448-0.64h-2.24v-3.52l-0.128-0.064c-0.448-0.576-1.152-0.576-1.536 0l-0.256 0.128v3.52h-2.624c-0.256 0.192-0.448 0.448-0.448 0.704s0.128 0.384 0.448 0.64h2.624v4.672c-0.64 0.448-1.856 0.832-2.816 1.088l-0.064 0.064c-0.128 0.128-0.512 0.448-0.448 0.832s0.576 0.576 0.704 0.64h0.128c0.704-0.192 1.6-0.448 2.624-0.896v4.352c0 0.128 0 0.256-0.064 0.256-0.064 0.064-0.128 0.064-0.256 0.064-0.384 0-0.96-0.192-1.792-0.512h-0.128c-0.384 0-0.704 0.128-0.832 0.384s-0.128 0.576 0.064 1.024l0.064 0.128 0.128 0.064c1.024 0.384 1.856 0.576 2.56 0.576 0.576 0 1.152-0.192 1.472-0.512s0.512-0.832 0.512-1.408v-5.056c0.704-0.576 1.856-1.088 2.56-1.6v0z"></path>
<path fill="#54c0ef" class="path3 fill-color5" d="M24.896 12.992l-0.064 0.064h-8.384v-3.264c0-0.192 0-0.448 0.512-0.448 2.304-0.128 4.416-0.384 6.336-0.896h0.064l0.064-0.064c0.256-0.256 0.384-0.576 0.32-0.832s-0.256-0.448-0.576-0.576l-0.128-0.064h-0.128c-1.984 0.512-4.224 0.768-6.4 0.896-1.536 0.128-1.984 1.088-1.984 1.792v4.48c0.64 4.032-0.64 7.232-2.368 9.536v0.128c-0.064 0.384 0 0.64 0.128 0.832 0.128 0.128 0.448 0.32 1.024 0.128l0.128-0.064 0.064-0.064c1.856-2.56 2.816-5.888 2.752-10.368h4.032v10.112l-0.064 0.064c0.192 0.32 0.384 0.512 0.64 0.512s0.448-0.192 0.704-0.512v-10.048h3.264l0.064-0.064c0.256-0.192 0.448-0.384 0.448-0.64s-0.192-0.448-0.448-0.64z"></path>
</symbol>
<symbol id="EXCHANGE2" viewBox="0 0 32 32">
<title>EXCHANGE2</title>
    <path fill="#ee5a49" class="path4 fill-color10" d="M23.424 17.28c-0.064-0.896 0.256-2.24 0.256-2.24s-3.52-0.064-4.032 0.704c-0.192 0.32 0.768 0.896 0.576 1.216s-1.536 0.512-1.536 0.512 0.704 0.512 1.152 1.088l3.584-1.28z"></path>
    <path fill="#ee5a49" class="path5 fill-color10" d="M24.96 23.296l-0.64 2.176-1.792-1.344-0.704 0.192 1.216 0.896-0.576 0.192 0.128 0.384 0.832-0.32 0.64 0.448-1.152 0.384 0.128 0.32 1.216-0.384 0.384 1.216 0.64-0.192-0.448-1.216 1.28-0.448-0.128-0.32-1.152 0.384 0.192-0.704 0.832-0.32-0.064-0.32-0.576 0.192 0.448-1.472z"></path>
    <path fill="#ee5a49" class="path6 fill-color10" d="M24.384 18.24c-0.064 0-0.064 0.064-0.128 0.064l-4.16 1.408c-0.064 0-0.128 0.064-0.192 0.064-2.176 3.2-2.624 7.040-1.984 9.024 0.832 2.56 4.864 3.52 8.384 2.368s6.080-4.352 5.248-6.912c-0.768-2.048-3.392-4.544-7.168-6.016zM25.28 28.224c-1.856 0.64-3.776-0.064-4.288-1.536s0.576-3.2 2.432-3.84c1.856-0.64 3.776 0.064 4.288 1.536s-0.576 3.2-2.432 3.84z"></path>
    <path fill="#ee5a49" class="path1 fill-color1" d="M26.688 2.048c1.856 0 3.392 1.536 3.392 3.392v21.44c0 1.856-1.536 3.392-3.392 3.392h-21.376c-1.856 0-3.392-1.536-3.392-3.392v-21.504c0-1.856 1.536-3.392 3.392-3.392h21.376zM26.688 0.128h-21.376c-2.944 0-5.312 2.368-5.312 5.248v21.44c0 2.944 2.368 5.248 5.312 5.248h21.44c2.944 0 5.312-2.368 5.312-5.248v-21.44c-0.064-2.88-2.432-5.248-5.376-5.248v0z"></path>
<path fill="#ee5a49" class="path2 fill-color1" d="M24.704 23.68c-2.048-0.896-3.84-2.56-5.248-4.48h5.376l0.064-0.064c0.256-0.192 0.448-0.448 0.448-0.704s-0.128-0.704-0.448-0.896l-0.064-0.256h-0.96v-3.648c0.128-0.704 0-1.152-0.32-1.536s-0.896-0.576-1.664-0.576h-1.472c0.576-0.64 1.024-1.344 1.28-1.92 0.192-0.512 0.192-0.96-0.064-1.28-0.32-0.448-0.96-0.704-2.048-0.704h-2.624l0.128-0.256-0.064-0.128c-0.192-0.512-0.512-0.576-0.704-0.576-0.256 0-0.448 0.128-0.704 0.384l-0.064 0.064c-0.576 1.28-1.472 2.56-2.624 3.84l-0.064 0.064v0.064c-0.064 0.256-0.064 0.448-0.064 0.576-0.064-0.064-0.128-0.064-0.256-0.128h-1.664v-4.224c-0.448-0.704-0.896-0.704-1.344 0l0.064 0.064v4.16h-2.176c-0.256 0.192-0.448 0.384-0.448 0.64s0.128 0.448 0.448 0.64h2.176v4.096l-2.432 1.28-0.128 0.064c-0.064 0.128-0.32 0.384-0.128 0.704 0.192 0.384 0.64 0.192 0.832 0.192h0.064l1.792-0.512v4.736c0 0.064-0.128 0.128-0.384 0.128s-0.768-0.064-1.6-0.448h-0.256c-0.32 0.064-0.576 0.192-0.704 0.448s-0.064 0.576 0.128 0.896l0.064 0.128 0.128 0.064c0.896 0.256 1.6 0.448 2.176 0.448 1.344 0 1.664-0.832 1.664-1.344v-5.824l1.664-1.088 0.128-0.128c0.192-0.32 0.256-0.704 0.128-0.896-0.128-0.384-0.64-0.384-0.768-0.384h-0.128l-0.96 0.704v-3.264h1.664c0.256-0.192 0.448-0.448 0.448-0.704 0-0.064 0-0.064 0-0.128 0.128 0.128 0.384 0.256 0.832 0.192h0.128c-0.384 0.384-0.512 0.896-0.512 1.664v3.456h-1.472l-0.064 0.256c-0.256 0.192-0.448 0.576-0.448 0.832s0.128 0.512 0.448 0.768l0.064 0.128h4.864c-0.832 1.92-2.624 3.456-5.184 4.608l-0.064 0.064h-0.064c-0.192 0.32-0.256 0.64-0.128 0.896 0.192 0.384 0.704 0.384 0.832 0.384h0.128c2.752-1.216 4.672-2.944 5.76-5.056 1.856 2.56 3.904 4.288 6.144 5.056h0.128c0.384-0.064 0.64-0.256 0.704-0.512 0.128-0.384-0.192-0.704-0.384-0.96v-0.064zM14.72 17.28v-3.52c0-0.448 0.256-0.32 0.704-0.32h2.368l-0.384 3.84h-2.688zM19.264 13.44h2.432c0.256 0 0.512-0.064 0.576 0s0.128 0.064 0.128 0.32v3.52h-3.52l0.384-3.84zM19.584 8.96c0.32 0 0.448 0.192 0.512 0.192 0 0 0 0.064-0.064 0.064-0.448 0.768-1.024 1.6-1.664 2.24h-3.136c-0.512 0-0.896 0-1.216 0.192 0.832-0.832 1.536-1.472 2.112-2.752h3.456z"></path>
<path fill="#ee5a49" class="path3 fill-color1" d="M19.776 18.88c-0.192 0.064-0.256 0.192-0.192 0.32s0.192 0.192 0.384 0.128l4.224-1.408c0.192-0.064 0.256-0.192 0.192-0.32s-0.192-0.192-0.384-0.128l-4.224 1.408z"></path>
</symbol>
<symbol id="MEMBER_UPGRADE" viewBox="0 0 32 32">
<title>MEMBER_UPGRADE</title>
<path fill="#ee5a49" class="path1 fill-color1" d="M26.688 0h-21.376c-2.944 0-5.312 2.368-5.312 5.248v21.44c0 2.944 2.368 5.248 5.312 5.248h21.44c2.944 0 5.312-2.368 5.312-5.248v-21.44c-0.064-2.88-2.432-5.248-5.376-5.248v0z"></path>
<path fill="#fefefe" class="path2 fill-color10" d="M18.88 22.016v0.384l-0.448 6.144-3.328-5.12v-0.448l-1.984 0.448 0.192 0.576v0.128l4.416 6.976 0.384 0.576 0.64-0.192 0.704-0.128 0.64-0.192 0.064-0.704 0.64-8.128-0.192-0.768z"></path>
<path fill="#fefefe" class="path3 fill-color10" d="M21.184 21.376l2.304 8.896 1.856-0.448-2.304-8.896z"></path>
<path fill="#fefefe" class="path4 fill-color10" d="M31.808 21.696c-0.32-1.216-1.536-2.112-2.944-2.112-0.256 0-0.576 0.064-0.832 0.128l-3.712 0.96 2.176 8.96 1.856-0.512-0.832-3.328 1.856-0.512c1.728-0.448 2.816-2.048 2.432-3.584zM28.992 23.488l-1.856 0.512-0.576-2.112 1.856-0.512c0.64-0.128 1.408 0.192 1.536 0.704 0.192 0.576-0.256 1.216-0.96 1.408z"></path>
<path fill="#fff" class="path5 fill-color9" d="M25.28 13.376v-0.064l-0.064-0.064c-2.88-1.664-5.568-3.712-8.064-6.144-0.704-0.576-1.472-0.576-2.112 0-2.496 2.56-5.184 4.608-8.192 6.080l-0.064 0.064-0.064 0.128c-0.064 0.128-0.32 0.512-0.128 0.896s0.704 0.384 0.832 0.384h0.128c2.496-1.088 5.248-3.072 8.256-5.952 0.064-0.064 0.128-0.192 0.256-0.192 0.064 0 0.192 0.064 0.32 0.192 2.88 2.688 5.632 4.736 8 5.952l0.064 0.064h0.064c0.32 0 0.576-0.128 0.768-0.32 0.128-0.32 0.128-0.64 0-1.024z"></path>
<path fill="#fff" class="path6 fill-color9" d="M23.808 16.512l-0.128 0.064h-15.36l-0.064-0.064c-0.256 0.192-0.448 0.384-0.448 0.64s0.128 0.448 0.448 0.64h4.544c-0.896 1.28-1.856 3.072-2.88 4.608-0.32 0.576-0.384 0.96-0.192 1.28s0.64 0.512 1.344 0.512v0c2.56 0 6.080-0.256 10.432-0.576 0.064 0.256 0.128 0.512 0.192 0.832l0.064 0.128c0.256 0.32 0.512 0.448 0.704 0.448 0.32 0 0.576-0.256 0.704-0.704v-0.192c-0.512-1.728-1.216-3.456-2.112-5.184l-0.064-0.128-0.128-0.064c-0.192-0.064-0.192-0.128-0.32-0.128-0.192 0-0.576 0.064-0.576 0.832v0.32l-0.128 0.064c0.32 0.64 0.64 1.472 1.088 2.56-3.712 0.192-6.848 0.32-9.408 0.448-0.064 0-0.064 0-0.128 0 0.896-1.344 1.856-3.008 3.008-4.928h9.088l0.064-0.064c0.32-0.192 0.512-0.384 0.512-0.64s0.128-0.512-0.256-0.704z"></path>
<path fill="#fff" class="path7 fill-color9" d="M11.264 14.016h9.856c0.32-0.192 0.512-0.448 0.512-0.704s-0.192-0.448-0.512-0.64l-0.064 0.064h-9.856c-0.384 0.192-0.512 0.448-0.512 0.704s0.192 0.448 0.512 0.64l0.064-0.064z"></path>
</symbol>
<symbol id="POINT2" viewBox="0 0 32 32">
<title>POINT2</title>
<path fill="#af94f8" class="path1 fill-color8" d="M26.752 1.92c1.856 0 3.328 1.536 3.328 3.392v21.44c0 1.856-1.536 3.392-3.392 3.392h-21.376c-1.856 0-3.392-1.536-3.392-3.392v-21.44c0-1.856 1.536-3.392 3.392-3.392h21.44zM26.752 0h-21.44c-2.944 0-5.312 2.368-5.312 5.312v21.44c0 2.944 2.368 5.248 5.312 5.248h21.44c2.944 0 5.312-2.368 5.312-5.248v-21.44c-0.064-2.944-2.432-5.312-5.312-5.312v0z"></path>
<path fill="#af94f8" class="path2 fill-color8" d="M16.576 16.832h5.632c0.128 0 0.192 0 0.256 0 0.576 0 1.024-0.192 1.28-0.512 0.32-0.32 0.448-0.832 0.384-1.472v-5.376c0.064-0.576-0.064-1.152-0.384-1.536-0.384-0.384-0.96-0.704-1.728-0.704h-5.568c-1.28 0-1.728 0.96-1.728 2.304v5.248c0 2.048 1.28 2.112 1.856 2.048zM22.592 14.912c0 0.128 0 0.256 0 0.32-0.064 0.064-0.128 0.256-0.256 0.256-0.064 0-0.128 0.128-0.256 0.128h-5.44v-0.128c-0.064 0-0.128-0.064-0.192-0.064-0.192 0-0.448-0.064-0.448-0.704v-5.12c0-0.448 0.192-0.384 0.64-0.384h5.248c0.32 0 0.576 0 0.704 0.064 0.064 0.064 0.064 0.128 0.064 0.384l-0.064 5.248z"></path>
<path fill="#af94f8" class="path3 fill-color8" d="M24.896 23.488c-0.576-1.6-1.536-3.648-2.688-6.208l-0.128-0.128c-0.256-0.128-0.448-0.192-0.64-0.192s-0.576 0.064-0.704 0.704v0.128l0.064 0.128c1.088 2.304 1.984 4.352 2.688 6.144l0.064 0.128 0.064 0.064c0.256 0.128 0.448 0.192 0.64 0.192s0.576-0.064 0.768-0.704v-0.064l-0.128-0.192z"></path>
<path fill="#af94f8" class="path4 fill-color8" d="M16.96 17.024c-0.192 0-0.448 0.128-0.704 0.32l-0.064 0.064v0.064c-0.576 1.536-1.728 3.584-3.264 5.952l-0.128 0.064v0.128c0 0.768 0.576 0.832 0.704 0.832s0.32-0.064 0.512-0.128l0.128-0.128c1.28-1.792 2.496-3.904 3.456-6.208l0.064-0.064v-0.064c-0.128-0.704-0.448-0.832-0.704-0.832z"></path>
<path fill="#af94f8" class="path5 fill-color8" d="M14.080 17.152v-0.064l-0.128-0.064c-0.576-1.088-1.152-2.368-2.432-3.84v-0.128h1.92l0.064-0.128c0.256-0.192 0.448-0.448 0.448-0.704s-0.128-0.64-0.448-0.832l-0.064-0.256h-1.92v-2.176c0.64-0.192 1.536-0.448 2.112-0.704l0.128-0.128c0.064-0.128 0.32-0.576 0.128-0.896-0.128-0.192-0.384-0.32-0.704-0.32h-0.128c-1.472 0.512-3.2 0.832-5.184 1.024l-0.128 0.064c-0.32 0.192-0.512 0.448-0.512 0.704s0.192 0.384 0.512 0.576l0.064-0.128h0.064c0.32 0 1.024 0.192 2.304 0.064v1.92h-2.752l-0.064 0.192c-0.256 0.192-0.448 0.512-0.448 0.768s0.128 0.576 0.448 0.768l0.064 0.128h2.368c-0.704 1.92-1.856 3.968-3.392 6.208v0.128c-0.064 0.32 0 0.576 0.128 0.768 0.128 0.128 0.512 0.32 1.088 0h0.064l0.192-0.064c0.896-1.216 1.728-2.368 2.368-3.584v7.68l-0.064 0.064c0.192 0.256 0.384 0.448 0.64 0.448s0.448-0.128 0.64-0.448v-8.192c0 0.512 0.64 1.088 1.088 1.792l0.128 0.128c0.192 0.128 0.512 0.192 0.64 0.192 0.256-0.064 0.768-0.128 0.768-0.96z"></path>
</symbol>
<symbol id="POINTCONSUME2" viewBox="0 0 32 32">
<title>POINTCONSUME2</title>
<path fill="#f47a62" class="path1 fill-color6" d="M26.688 1.92c1.856 0 3.392 1.536 3.392 3.392v21.44c0 1.856-1.536 3.392-3.392 3.392h-21.376c-1.856 0-3.392-1.536-3.392-3.392v-21.44c0-1.856 1.536-3.392 3.392-3.392h21.376zM26.688 0h-21.376c-2.944 0-5.312 2.368-5.312 5.312v21.44c0 2.944 2.368 5.248 5.312 5.248h21.44c2.944 0 5.312-2.368 5.312-5.248v-21.44c-0.064-2.944-2.432-5.312-5.376-5.312v0z"></path>
<path fill="#f47a62" class="path2 fill-color6" d="M25.024 19.2v-0.064l-0.064-0.064c-0.448-0.704-1.024-0.704-1.472 0l-0.064 0.064v0.064c0.128 3.52-0.32 3.968-0.32 4.032-0.96-0.384-2.304-2.496-2.88-8.256h4.096l0.064-0.128c0.32-0.192 0.512-0.512 0.512-0.768s-0.192-0.64-0.512-0.832l-0.064-0.192h-4.16c-0.064-1.28-0.064-2.688 0-3.776 1.216-0.128 2.176-0.192 2.944-0.384h0.064l0.064-0.064c0.256-0.256 0.384-0.576 0.32-0.832s-0.256-0.448-0.576-0.576l-0.064-0.064h-0.064c-2.368 0.384-4.544 0.64-6.464 0.64-0.384 0-0.768 0-1.152 0-1.152-0.064-1.792 0.576-1.792 1.792v1.28c-0.64-0.128-0.256-0.32-0.448-0.448l-0.064-0.128h-2.048v-3.2l0.064-0.064c-0.448-0.704-0.96-0.704-1.344 0v3.264h-2.24l-0.064 0.128c-0.256 0.192-0.448 0.512-0.448 0.768s0.128 0.64 0.448 0.832l0.064 0.192h2.24v4.352c-1.28 0.384-1.664 0.704-2.368 0.96l-0.128 0.064-0.064 0.064c-0.192 0.384-0.256 0.64-0.192 0.896 0.128 0.256 0.32 0.384 0.64 0.448h0.128c0.512-0.192 1.088-0.384 1.856-0.704v4.352c0 0.192 0 0.32-0.064 0.384 0 0.064-0.128 0.064-0.192 0.064-0.256 0-0.704-0.128-1.216-0.32l-0.064-0.064h-0.064c-0.384 0.064-0.64 0.256-0.768 0.512-0.128 0.384 0.192 0.768 0.256 0.896l0.064 0.064h0.064c0.768 0.256 1.28 0.384 1.728 0.384 1.088 0 1.6-0.64 1.6-1.728v-5.312c0.64-0.384 1.92-0.768 2.56-1.152v6.72c0 0.512 0.064 0.832 0.192 1.152 0.256 0.448 0.768 0.64 1.408 0.384 1.024-0.448 2.048-1.344 3.008-2.624 0.64 0.896 1.216 1.792 1.728 2.688l0.128 0.128c0.192 0.128 0.384 0.192 0.576 0.192s0.64-0.064 0.64-0.896v-0.128c-0.384-1.024-1.088-2.048-1.984-3.072l-0.064-0.064c-0.192-0.128-0.384-0.192-0.576-0.192-0.128 0-0.448 0.064-0.576 0.384-0.192-0.128-0.384-0.192-0.512-0.192s-0.256 0-0.448 0.128h-0.064l-0.192-0.064c-1.152 1.472-1.92 1.856-1.92 1.92v-8.064h3.968c0.512 5.76 1.92 9.408 4.288 9.92 0.512 0.064 0.896-0.128 1.216-0.448 0.704-0.704 0.96-2.496 0.832-5.248zM13.44 15.488c-0.64-0.128-0.384 0.128-0.576 0.128h-0.064l-1.92 0.576v-3.776h2.048l0.064-0.128c0.192-0.128-0.192-0.32 0.448-0.448 0 0 0 3.648 0 3.648zM20.48 24.768v0 0 0zM18.624 13.056h-3.904v-3.008c0-0.576 0.384-0.576 0.512-0.576 0.064 0 0.192 0 0.256 0 1.152 0 2.24-0.128 3.136-0.192-0.064 1.088-0.064 2.496 0 3.776z"></path>
</symbol>
<symbol id="SPECIAL_PRICE2" viewBox="0 0 32 32">
<title>SPECIAL_PRICE2</title>
<path fill="#73e7f4" class="path1 fill-color7" d="M26.688 1.92c1.856 0 3.392 1.536 3.392 3.392v21.44c0 1.856-1.536 3.392-3.392 3.392h-21.376c-1.856 0-3.392-1.536-3.392-3.392v-21.44c0-1.856 1.536-3.392 3.392-3.392h21.376zM26.688 0h-21.376c-2.944 0-5.312 2.368-5.312 5.312v21.44c0 2.944 2.368 5.248 5.312 5.248h21.44c2.944 0 5.312-2.368 5.312-5.248v-21.44c-0.064-2.944-2.432-5.312-5.376-5.312v0z"></path>
<path fill="#73e7f4" class="path2 fill-color7" d="M24.896 15.744l-0.064-0.128h-2.432v-1.92h2.432l0.064 0.064c0.256-0.192 0.448-0.384 0.448-0.64s-0.128-0.448-0.448-0.704h-5.056v-1.92h3.904l0.064-0.128c0.256-0.192 0.448-0.448 0.448-0.704s-0.128-0.64-0.448-0.832l-0.064-0.256h-3.904v-1.28l-0.128-0.064c-0.448-0.576-1.152-0.576-1.6 0l-0.192 0.064v1.28h-3.392l-0.064 0.256c-0.32 0.32-0.448 0.64-0.384 0.896 0 0.192 0.128 0.448 0.448 0.64l0.064 0.128h3.328v1.92h-3.968l-0.064 0.064c-0.256 0.192-0.448 0.448-0.448 0.704s0.128 0.32 0.448 0.576l0.064-0.064h7.168v1.92h-7.168v0.064c0-0.064-0.064-0.064-0.064-0.064-0.128-0.192-0.448-0.32-1.088-0.128l-0.128 0.064v0.064c-0.128 0.192-0.512 0.448-0.512 0.64v-3.84h1.408l0.064-0.192c0.256-0.192 0.448-0.512 0.448-0.768s-0.128-0.576-0.448-0.832l-0.064-0.128h-1.408v-3.2l-0.128-0.064c-0.448-0.576-1.152-0.576-1.536 0l-0.256 0.064v3.2h-0.64c0.064-0.64 0.192-1.664 0.256-2.88v-0.064l-0.064-0.064c-0.448-0.576-0.96-0.576-1.408 0l-0.064 0.064v0.128c-0.128 2.944-0.576 5.376-1.472 7.232l-0.064 0.064 0.064 0.128c0.256 0.832 0.896 0.96 1.472 0.256l0.064 0.064c0.448-1.024 0.832-2.368 1.024-3.008h0.832v5.184c-0.64 0.832-2.112 1.6-3.328 2.24l-0.064 0.064v0.128c-0.128 0.384-0.128 0.768 0 0.96s0.384 0.384 0.768 0.384h0.064v-0.128c0.832-0.448 1.92-1.088 2.56-1.728v5.056l0.128 0.064c0.448 0.576 1.152 0.576 1.536 0l0.256-0.064v-6.272c0.64-0.384 0.96-0.896 1.472-1.408 0.064 0.128 0.128 0.32 0.256 0.448l0.064 0.192h1.152c-0.064 0-0.128 0-0.128 0.064-0.128 0.192-0.128 0.448 0 0.768v0.064l0.064 0.064c1.152 0.96 2.24 2.112 3.072 3.392l0.064 0.128c0.704 0.128 1.024-0.192 1.024-0.896v-0.128l0.064 0.064c-0.896-1.28-1.856-2.816-3.072-3.456h4.736v5.76c0 0.064 0 0.128-0.064 0.192s-0.192 0.064-0.32 0.064c-0.448 0-1.216-0.256-2.176-0.64l-0.128-0.064-0.128 0.064c-0.256 0.128-0.448 0.32-0.512 0.576s-0.064 0.512 0.064 0.768l0.064 0.128 0.128 0.064c1.152 0.512 2.112 0.768 2.816 0.768 0.64 0 1.152-0.192 1.408-0.512 0.32-0.32 0.32-0.768 0.32-1.28v-5.76h2.432l0.064-0.192c0.256-0.192 0.448-0.576 0.448-0.832s-0.192-0.768-0.448-0.96z"></path>
</symbol>
<symbol id="VIP2" viewBox="0 0 32 32">
<title>VIP</title>
<path fill="#ee5a49" class="path1 fill-color1" d="M26.688 1.984c1.856 0 3.392 1.536 3.392 3.392v21.44c0 1.856-1.536 3.392-3.392 3.392h-21.376c-1.856 0-3.392-1.536-3.392-3.392v-21.504c0-1.856 1.536-3.392 3.392-3.392l21.376 0.064zM26.688 0.064h-21.376c-2.944 0-5.312 2.368-5.312 5.248v21.44c0 2.944 2.368 5.248 5.312 5.248h21.44c2.944 0 5.312-2.368 5.312-5.248v-21.44c-0.064-2.88-2.432-5.248-5.376-5.248v0z"></path>
<path fill="#ee5a49" class="path2 fill-color1" d="M23.808 16.576l-0.128 0.064h-15.36l-0.064-0.064c-0.256 0.192-0.448 0.384-0.448 0.64s0.128 0.448 0.448 0.64h4.544c-0.896 1.28-1.856 3.072-2.88 4.608-0.32 0.576-0.384 0.96-0.192 1.28s0.64 0.512 1.344 0.512v0c2.56 0 6.080-0.256 10.432-0.576 0.064 0.256 0.128 0.512 0.192 0.832l0.064 0.128c0.256 0.32 0.512 0.448 0.704 0.448 0.32 0 0.576-0.256 0.704-0.704v-0.192c-0.512-1.728-1.216-3.456-2.112-5.184l-0.064-0.128-0.128-0.064c-0.192-0.064-0.192-0.128-0.32-0.128-0.192 0-0.576 0.064-0.576 0.832v0.32l-0.128 0.064c0.32 0.64 0.64 1.472 1.088 2.56-3.712 0.192-6.848 0.32-9.408 0.448-0.064 0-0.064 0-0.128 0 0.896-1.344 1.856-3.008 3.008-4.928h9.088l0.064-0.064c0.32-0.192 0.512-0.384 0.512-0.64s0.128-0.512-0.256-0.704z"></path>
<path fill="#ee5a49" class="path3 fill-color1" d="M11.264 14.080h9.856c0.32-0.192 0.512-0.448 0.512-0.704s-0.192-0.448-0.512-0.64l-0.064 0.064h-9.856c-0.384 0.192-0.512 0.448-0.512 0.704s0.192 0.448 0.512 0.64l0.064-0.064z"></path>
<path fill="#ee5a49" class="path4 fill-color1" d="M25.28 13.44v-0.064l-0.064-0.064c-2.88-1.664-5.568-3.712-8.064-6.144-0.704-0.576-1.472-0.576-2.112 0-2.432 2.56-5.184 4.608-8.192 6.080l-0.064 0.064-0.064 0.128c-0.064 0.128-0.32 0.512-0.128 0.896s0.704 0.384 0.832 0.384h0.128c2.496-1.088 5.248-3.072 8.256-5.952 0.064-0.064 0.128-0.192 0.256-0.192 0.064 0 0.192 0.064 0.32 0.192 2.88 2.688 5.632 4.736 8 5.952l0.064 0.064h0.064c0.32 0 0.576-0.128 0.768-0.32 0.128-0.32 0.128-0.64 0-1.024z"></path>
<path fill="#ee5a49" class="path5 fill-color1" d="M13.568 24l0.064 0.256v0.064l0.064 0.064 4.352 6.848 0.256 0.384 0.448-0.128 0.64-0.128 0.448-0.128 0.064-0.448 0.576-8.128v-0.128l-0.064-0.256-1.216 0.32v0.128l-0.512 7.104-3.84-6.016v-0.128l-1.28 0.32zM21.632 21.952l2.048 8.256 1.216-0.32-2.112-8.256-1.152 0.32zM24.768 21.184l0.128 0.576 0.96 3.84 0.128 0.576 0.832 3.328 1.216-0.32-0.832-3.328 2.176-0.576c1.536-0.384 2.496-1.856 2.176-3.2s-1.92-2.176-3.392-1.792l-3.392 0.896zM26.24 21.952l2.176-0.576c0.832-0.192 1.728 0.256 1.92 0.96 0.192 0.768-0.384 1.536-1.216 1.792l-2.24 0.576-0.64-2.752z"></path>
<path fill="#ee5a49" class="path6 fill-color10" d="M18.176 32l-0.384-0.576-4.48-7.104-0.128-0.512 1.856-0.448 0.064 0.384 3.264 5.184 0.448-6.080-0.128-0.384 1.856-0.448 0.192 0.768-0.64 8.832-1.92 0.384zM13.952 24.192v0l4.48 7.040 1.088-0.256v-0.192l0.64-8.128-0.64 0.192-0.576 8-4.288-6.784-0.704 0.128zM23.488 30.656l-2.24-8.896 1.856-0.448 2.24 8.896-1.856 0.448zM22.016 22.208l1.92 7.68 0.64-0.128-1.92-7.68-0.64 0.128zM26.56 29.824l-2.24-8.896 3.712-0.96c0.256-0.064 0.576-0.128 0.832-0.128 1.408 0 2.624 0.896 2.944 2.112 0.384 1.536-0.704 3.136-2.368 3.584l-1.92 0.448 0.832 3.328-1.792 0.512zM25.152 21.44l1.92 7.68 0.64-0.128-0.896-3.392 2.496-0.64c1.344-0.32 2.24-1.6 1.92-2.816-0.256-0.96-1.216-1.664-2.368-1.664-0.256 0-0.448 0-0.704 0.064l-3.008 0.896zM26.688 25.152l-0.832-3.392 2.496-0.64c0.128-0.064 0.32-0.064 0.512-0.064 0.832 0 1.6 0.512 1.792 1.28 0.256 0.896-0.448 1.92-1.408 2.176l-2.56 0.64zM26.56 22.208l0.576 2.112 1.856-0.448c0.64-0.192 1.088-0.832 0.96-1.408s-0.832-0.896-1.536-0.768l-1.856 0.512z"></path>
</symbol>
</defs>
</svg>
