<?xml version="1.0" encoding="utf-8"?>
<!-- Generator: Adobe Illustrator 18.0.0, SVG Export Plug-In . SVG Version: 6.00 Build 0)  -->
<!DOCTYPE svg PUBLIC "-//W3C//DTD SVG 1.1//EN" "http://www.w3.org/Graphics/SVG/1.1/DTD/svg11.dtd">
<svg version="1.1" id="图层_1" xmlns="http://www.w3.org/2000/svg" xmlns:xlink="http://www.w3.org/1999/xlink" x="0px" y="0px"
	 viewBox="0 0 50 50" enable-background="new 0 0 50 50" xml:space="preserve">
<g>
	<g>
		<path fill="#EE5A49" d="M41.7,3.1c2.9,0,5.3,2.4,5.3,5.3v33.5c0,2.9-2.4,5.3-5.3,5.3H8.3c-2.9,0-5.3-2.4-5.3-5.3V8.3
			C3,5.4,5.4,3,8.3,3L41.7,3.1 M41.7,0.1H8.3C3.7,0.1,0,3.8,0,8.3v33.5C0,46.4,3.7,50,8.3,50h33.5c4.6,0,8.3-3.7,8.3-8.2V8.3
			C50,3.8,46.3,0.1,41.7,0.1L41.7,0.1z"/>
	</g>
</g>
<g>
	<path fill="#EE5A49" d="M37.2,25.9L37,26H13l-0.1-0.1c-0.4,0.3-0.7,0.6-0.7,1s0.2,0.7,0.7,1H13h7c-1.4,2-2.9,4.8-4.5,7.2
		c-0.5,0.9-0.6,1.5-0.3,2s1,0.8,2.1,0.8l0,0c4,0,9.5-0.4,16.3-0.9c0.1,0.4,0.2,0.8,0.3,1.3l0.1,0.2c0.4,0.5,0.8,0.7,1.1,0.7
		c0.5,0,0.9-0.4,1.1-1.1V38v-0.2c-0.8-2.7-1.9-5.4-3.3-8.1l-0.1-0.2l-0.2-0.1c-0.3-0.1-0.3-0.2-0.5-0.2c-0.3,0-0.9,0.1-0.9,1.3V31
		L31,31.1c0.5,1,1,2.3,1.7,4C26.9,35.4,22,35.6,18,35.8c-0.1,0-0.1,0-0.2,0c1.4-2.1,2.9-4.7,4.7-7.7h14.2l0.1-0.1
		c0.5-0.3,0.8-0.6,0.8-1S37.8,26.2,37.2,25.9z"/>
	<path fill="#EE5A49" d="M17.6,22h15.3H33c0.5-0.3,0.8-0.7,0.8-1.1s-0.3-0.7-0.8-1L32.9,20H17.6h-0.1c-0.6,0.3-0.8,0.7-0.8,1.1
		s0.3,0.7,0.8,1L17.6,22z"/>
	<path fill="#EE5A49" d="M39.5,21v-0.1l-0.1-0.1c-4.5-2.6-8.7-5.8-12.6-9.6c-1.1-0.9-2.3-0.9-3.3,0c-3.8,4-8.1,7.2-12.8,9.5
		l-0.1,0.1L10.5,21c-0.1,0.2-0.5,0.8-0.2,1.4s1.1,0.6,1.3,0.6h0.2c3.9-1.7,8.2-4.8,12.9-9.3c0.1-0.1,0.2-0.3,0.4-0.3
		c0.1,0,0.3,0.1,0.5,0.3c4.5,4.2,8.8,7.4,12.5,9.3l0.1,0.1h0.1c0.5,0,0.9-0.2,1.2-0.5C39.7,22.1,39.7,21.6,39.5,21z"/>
</g>
<g opacity="0.3">
	<g>
		<path fill="#EE5A49" d="M21.2,37.5l0.1,0.4V38l0.1,0.1l6.8,10.7l0.4,0.6l0.7-0.2l1-0.2l0.7-0.2l0.1-0.7L32,35.4v-0.1v-0.1
			l-0.1-0.4L30,35.3v0.2l-0.8,11.1l-6-9.4V37L21.2,37.5z M33.8,34.3L37,47.2l1.9-0.5l-3.3-12.9L33.8,34.3z M38.7,33.1l0.2,0.9l1.5,6
			l0.2,0.9l1.3,5.2l1.9-0.5l-1.3-5.2l3.4-0.9c2.4-0.6,3.9-2.9,3.4-5s-3-3.4-5.3-2.8l-3.4,0.9L38.7,33.1z M41,34.3l3.4-0.9
			c1.3-0.3,2.7,0.4,3,1.5c0.3,1.2-0.6,2.4-1.9,2.8L42,38.6L41,34.3z"/>
	</g>
	<g>
		<path fill="#EE5A49" d="M28.4,50l-0.6-0.9l-7-11.1l-0.2-0.8l2.9-0.7l0.1,0.6l5.1,8.1l0.7-9.5l-0.2-0.6l2.9-0.7l0.3,1.2l-1,13.8
			L28.4,50z M21.8,37.8L21.8,37.8l7,11l1.7-0.4v-0.3l1-12.7l-1,0.3l-0.9,12.5l-6.7-10.6L21.8,37.8z M36.7,47.9L33.2,34l2.9-0.7
			l3.5,13.9L36.7,47.9z M34.4,34.7l3,12l1-0.2l-3-12L34.4,34.7z M41.5,46.6L38,32.7l5.8-1.5c0.4-0.1,0.9-0.2,1.3-0.2
			c2.2,0,4.1,1.4,4.6,3.3c0.6,2.4-1.1,4.9-3.7,5.6L43,40.6l1.3,5.2L41.5,46.6z M39.3,33.5l3,12l1-0.2L41.9,40l3.9-1
			c2.1-0.5,3.5-2.5,3-4.4c-0.4-1.5-1.9-2.6-3.7-2.6c-0.4,0-0.7,0-1.1,0.1L39.3,33.5z M41.7,39.3L40.4,34l3.9-1
			c0.2-0.1,0.5-0.1,0.8-0.1c1.3,0,2.5,0.8,2.8,2c0.4,1.4-0.7,3-2.2,3.4L41.7,39.3z M41.5,34.7l0.9,3.3l2.9-0.7
			c1-0.3,1.7-1.3,1.5-2.2s-1.3-1.4-2.4-1.2L41.5,34.7z"/>
	</g>
</g>
</svg>
